<svg width="1440" height="900" viewBox="0 0 1440 900" fill="none" xmlns="http://www.w3.org/2000/svg">
<g clip-path="url(#clip0)">
<circle cx="1373" cy="238" r="67" transform="rotate(-90 1373 238)" fill="#FFE47A"/>
<path d="M594 862.5C594 830.191 567.809 804 535.5 804C503.191 804 477 830.191 477 862.5C477 876.77 482.109 889.846 490.598 900H580.402C588.891 889.846 594 876.77 594 862.5Z" fill="#FFE47A"/>
<path d="M0 411C11.031 411 21.9541 413.173 32.1454 417.394C42.3368 421.616 51.5968 427.803 59.397 435.603C67.1971 443.403 73.3845 452.663 77.6059 462.855C81.8273 473.046 84 483.969 84 495C84 506.031 81.8273 516.954 77.6059 527.145C73.3845 537.337 67.1971 546.597 59.397 554.397C51.5968 562.197 42.3368 568.384 32.1454 572.606C21.9541 576.827 11.031 579 -7.34351e-06 579L0 495L0 411Z" fill="#B4E0E0"/>
<circle cx="1272.5" cy="724.5" r="33.5" transform="rotate(-90 1272.5 724.5)" fill="#B4E0E0"/>
<path d="M800.334 0C802.066 1.25802 804.196 2 806.5 2C808.804 2 810.934 1.25802 812.666 0L800.334 0Z" fill="white"/>
</g>
<defs>
<clipPath id="clip0">
<rect width="1440" height="900" fill="white"/>
</clipPath>
</defs>
</svg>
