<svg width="875" height="43" viewBox="0 0 875 43" fill="none" xmlns="http://www.w3.org/2000/svg">
<rect y="23" width="875" height="14" rx="2" fill="#FFE47A" fill-opacity="0.65"/>
<path d="M39.0633 35L39.0273 18.296L30.7473 32.12H28.6593L20.3793 18.512V35H15.9153V9.8H19.7673L29.7753 26.504L39.6033 9.8H43.4553L43.4913 35H39.0633ZM57.2101 15.56C60.0421 15.56 62.2021 16.244 63.6901 17.612C65.2021 18.956 65.9581 20.996 65.9581 23.732V35H61.7101V32.66C61.1581 33.5 60.3661 34.148 59.3341 34.604C58.3261 35.036 57.1021 35.252 55.6621 35.252C54.2221 35.252 52.9621 35.012 51.8821 34.532C50.8021 34.028 49.9621 33.344 49.3621 32.48C48.7861 31.592 48.4981 30.596 48.4981 29.492C48.4981 27.764 49.1341 26.384 50.4061 25.352C51.7021 24.296 53.7301 23.768 56.4901 23.768H61.4581V23.48C61.4581 22.136 61.0501 21.104 60.2341 20.384C59.4421 19.664 58.2541 19.304 56.6701 19.304C55.5901 19.304 54.5221 19.472 53.4661 19.808C52.4341 20.144 51.5581 20.612 50.8381 21.212L49.0741 17.936C50.0821 17.168 51.2941 16.58 52.7101 16.172C54.1261 15.764 55.6261 15.56 57.2101 15.56ZM56.5981 31.976C57.7261 31.976 58.7221 31.724 59.5861 31.22C60.4741 30.692 61.0981 29.948 61.4581 28.988V26.756H56.8141C54.2221 26.756 52.9261 27.608 52.9261 29.312C52.9261 30.128 53.2501 30.776 53.8981 31.256C54.5461 31.736 55.4461 31.976 56.5981 31.976ZM79.5813 26.756L76.2333 29.924V35H71.7333V8.288H76.2333V24.416L85.5573 15.776H90.9573L82.9293 23.84L91.7133 35H86.2413L79.5813 26.756ZM111.883 25.496C111.883 25.808 111.859 26.252 111.811 26.828H96.7274C96.9914 28.244 97.6754 29.372 98.7794 30.212C99.9074 31.028 101.299 31.436 102.955 31.436C105.067 31.436 106.807 30.74 108.175 29.348L110.587 32.12C109.723 33.152 108.631 33.932 107.311 34.46C105.991 34.988 104.503 35.252 102.847 35.252C100.735 35.252 98.8754 34.832 97.2674 33.992C95.6594 33.152 94.4114 31.988 93.5234 30.5C92.6594 28.988 92.2274 27.284 92.2274 25.388C92.2274 23.516 92.6474 21.836 93.4874 20.348C94.3514 18.836 95.5394 17.66 97.0514 16.82C98.5634 15.98 100.267 15.56 102.163 15.56C104.035 15.56 105.703 15.98 107.167 16.82C108.655 17.636 109.807 18.8 110.623 20.312C111.463 21.8 111.883 23.528 111.883 25.496ZM102.163 19.16C100.723 19.16 99.4994 19.592 98.4914 20.456C97.5074 21.296 96.9074 22.424 96.6914 23.84H107.599C107.407 22.448 106.819 21.32 105.835 20.456C104.851 19.592 103.627 19.16 102.163 19.16ZM150.419 15.56C152.843 15.56 154.763 16.268 156.179 17.684C157.595 19.076 158.303 21.176 158.303 23.984V35H153.803V24.56C153.803 22.88 153.431 21.62 152.687 20.78C151.943 19.916 150.875 19.484 149.483 19.484C147.971 19.484 146.759 19.988 145.847 20.996C144.935 21.98 144.479 23.396 144.479 25.244V35H139.979V24.56C139.979 22.88 139.607 21.62 138.863 20.78C138.119 19.916 137.051 19.484 135.659 19.484C134.123 19.484 132.899 19.976 131.987 20.96C131.099 21.944 130.655 23.372 130.655 25.244V35H126.155V15.776H130.439V18.224C131.159 17.36 132.059 16.7 133.139 16.244C134.219 15.788 135.419 15.56 136.739 15.56C138.179 15.56 139.451 15.836 140.555 16.388C141.683 16.916 142.571 17.708 143.219 18.764C144.011 17.756 145.031 16.976 146.279 16.424C147.527 15.848 148.907 15.56 150.419 15.56ZM172.869 35.252C170.925 35.252 169.173 34.832 167.613 33.992C166.053 33.152 164.829 31.988 163.941 30.5C163.077 28.988 162.645 27.284 162.645 25.388C162.645 23.492 163.077 21.8 163.941 20.312C164.829 18.824 166.053 17.66 167.613 16.82C169.173 15.98 170.925 15.56 172.869 15.56C174.837 15.56 176.601 15.98 178.161 16.82C179.721 17.66 180.933 18.824 181.797 20.312C182.685 21.8 183.129 23.492 183.129 25.388C183.129 27.284 182.685 28.988 181.797 30.5C180.933 31.988 179.721 33.152 178.161 33.992C176.601 34.832 174.837 35.252 172.869 35.252ZM172.869 31.4C174.525 31.4 175.893 30.848 176.973 29.744C178.053 28.64 178.593 27.188 178.593 25.388C178.593 23.588 178.053 22.136 176.973 21.032C175.893 19.928 174.525 19.376 172.869 19.376C171.213 19.376 169.845 19.928 168.765 21.032C167.709 22.136 167.181 23.588 167.181 25.388C167.181 27.188 167.709 28.64 168.765 29.744C169.845 30.848 171.213 31.4 172.869 31.4ZM198.34 15.56C200.764 15.56 202.708 16.268 204.172 17.684C205.636 19.1 206.368 21.2 206.368 23.984V35H201.868V24.56C201.868 22.88 201.472 21.62 200.68 20.78C199.888 19.916 198.76 19.484 197.296 19.484C195.64 19.484 194.332 19.988 193.372 20.996C192.412 21.98 191.932 23.408 191.932 25.28V35H187.432V15.776H191.716V18.26C192.46 17.372 193.396 16.7 194.524 16.244C195.652 15.788 196.924 15.56 198.34 15.56ZM230.325 25.496C230.325 25.808 230.301 26.252 230.253 26.828H215.169C215.433 28.244 216.117 29.372 217.221 30.212C218.349 31.028 219.741 31.436 221.397 31.436C223.509 31.436 225.249 30.74 226.617 29.348L229.029 32.12C228.165 33.152 227.073 33.932 225.753 34.46C224.433 34.988 222.945 35.252 221.289 35.252C219.177 35.252 217.317 34.832 215.709 33.992C214.101 33.152 212.853 31.988 211.965 30.5C211.101 28.988 210.669 27.284 210.669 25.388C210.669 23.516 211.089 21.836 211.929 20.348C212.793 18.836 213.981 17.66 215.493 16.82C217.005 15.98 218.709 15.56 220.605 15.56C222.477 15.56 224.145 15.98 225.609 16.82C227.097 17.636 228.249 18.8 229.065 20.312C229.905 21.8 230.325 23.528 230.325 25.496ZM220.605 19.16C219.165 19.16 217.941 19.592 216.933 20.456C215.949 21.296 215.349 22.424 215.133 23.84H226.041C225.849 22.448 225.261 21.32 224.277 20.456C223.293 19.592 222.069 19.16 220.605 19.16ZM252.296 15.776L243.296 36.548C242.456 38.636 241.436 40.1 240.236 40.94C239.036 41.804 237.584 42.236 235.88 42.236C234.92 42.236 233.972 42.08 233.036 41.768C232.1 41.456 231.332 41.024 230.732 40.472L232.532 37.16C232.964 37.568 233.468 37.892 234.044 38.132C234.644 38.372 235.244 38.492 235.844 38.492C236.636 38.492 237.284 38.288 237.788 37.88C238.316 37.472 238.796 36.788 239.228 35.828L239.552 35.072L231.164 15.776H235.844L241.892 29.996L247.976 15.776H252.296ZM295.045 15.776L287.953 35H283.633L278.665 21.752L273.625 35H269.305L262.249 15.776H266.497L271.573 29.96L276.865 15.776H280.645L285.829 30.032L291.049 15.776H295.045ZM309.048 15.56C311.472 15.56 313.416 16.268 314.88 17.684C316.344 19.1 317.076 21.2 317.076 23.984V35H312.576V24.56C312.576 22.88 312.18 21.62 311.388 20.78C310.596 19.916 309.468 19.484 308.004 19.484C306.348 19.484 305.04 19.988 304.08 20.996C303.12 21.98 302.64 23.408 302.64 25.28V35H298.14V8.288H302.64V18.008C303.384 17.216 304.296 16.616 305.376 16.208C306.48 15.776 307.704 15.56 309.048 15.56ZM322.784 15.776H327.284V35H322.784V15.776ZM325.052 12.608C324.236 12.608 323.552 12.356 323 11.852C322.448 11.324 322.172 10.676 322.172 9.908C322.172 9.14 322.448 8.504 323 8C323.552 7.472 324.236 7.208 325.052 7.208C325.868 7.208 326.552 7.46 327.104 7.964C327.656 8.444 327.932 9.056 327.932 9.8C327.932 10.592 327.656 11.264 327.104 11.816C326.576 12.344 325.892 12.608 325.052 12.608ZM333.19 8.288H337.69V35H333.19V8.288ZM361.669 25.496C361.669 25.808 361.645 26.252 361.597 26.828H346.513C346.777 28.244 347.461 29.372 348.565 30.212C349.693 31.028 351.085 31.436 352.741 31.436C354.853 31.436 356.593 30.74 357.961 29.348L360.373 32.12C359.509 33.152 358.417 33.932 357.097 34.46C355.777 34.988 354.289 35.252 352.633 35.252C350.521 35.252 348.661 34.832 347.053 33.992C345.445 33.152 344.197 31.988 343.309 30.5C342.445 28.988 342.013 27.284 342.013 25.388C342.013 23.516 342.433 21.836 343.273 20.348C344.137 18.836 345.325 17.66 346.837 16.82C348.349 15.98 350.053 15.56 351.949 15.56C353.821 15.56 355.489 15.98 356.953 16.82C358.441 17.636 359.593 18.8 360.409 20.312C361.249 21.8 361.669 23.528 361.669 25.496ZM351.949 19.16C350.509 19.16 349.285 19.592 348.277 20.456C347.293 21.296 346.693 22.424 346.477 23.84H357.385C357.193 22.448 356.605 21.32 355.621 20.456C354.637 19.592 353.413 19.16 351.949 19.16ZM394.768 8.288V35H390.448V32.516C389.704 33.428 388.78 34.112 387.676 34.568C386.596 35.024 385.396 35.252 384.076 35.252C382.228 35.252 380.56 34.844 379.072 34.028C377.608 33.212 376.456 32.06 375.616 30.572C374.776 29.06 374.356 27.332 374.356 25.388C374.356 23.444 374.776 21.728 375.616 20.24C376.456 18.752 377.608 17.6 379.072 16.784C380.56 15.968 382.228 15.56 384.076 15.56C385.348 15.56 386.512 15.776 387.568 16.208C388.624 16.64 389.524 17.288 390.268 18.152V8.288H394.768ZM384.616 31.4C385.696 31.4 386.668 31.16 387.532 30.68C388.396 30.176 389.08 29.468 389.584 28.556C390.088 27.644 390.34 26.588 390.34 25.388C390.34 24.188 390.088 23.132 389.584 22.22C389.08 21.308 388.396 20.612 387.532 20.132C386.668 19.628 385.696 19.376 384.616 19.376C383.536 19.376 382.564 19.628 381.7 20.132C380.836 20.612 380.152 21.308 379.648 22.22C379.144 23.132 378.892 24.188 378.892 25.388C378.892 26.588 379.144 27.644 379.648 28.556C380.152 29.468 380.836 30.176 381.7 30.68C382.564 31.16 383.536 31.4 384.616 31.4ZM418.727 25.496C418.727 25.808 418.703 26.252 418.655 26.828H403.571C403.835 28.244 404.519 29.372 405.623 30.212C406.751 31.028 408.143 31.436 409.799 31.436C411.911 31.436 413.651 30.74 415.019 29.348L417.431 32.12C416.567 33.152 415.475 33.932 414.155 34.46C412.835 34.988 411.347 35.252 409.691 35.252C407.579 35.252 405.719 34.832 404.111 33.992C402.503 33.152 401.255 31.988 400.367 30.5C399.503 28.988 399.071 27.284 399.071 25.388C399.071 23.516 399.491 21.836 400.331 20.348C401.195 18.836 402.383 17.66 403.895 16.82C405.407 15.98 407.111 15.56 409.007 15.56C410.879 15.56 412.547 15.98 414.011 16.82C415.499 17.636 416.651 18.8 417.467 20.312C418.307 21.8 418.727 23.528 418.727 25.496ZM409.007 19.16C407.567 19.16 406.343 19.592 405.335 20.456C404.351 21.296 403.751 22.424 403.535 23.84H414.443C414.251 22.448 413.663 21.32 412.679 20.456C411.695 19.592 410.471 19.16 409.007 19.16ZM440.698 15.776L432.454 35H427.81L419.566 15.776H424.246L430.222 30.032L436.378 15.776H440.698ZM461.055 25.496C461.055 25.808 461.031 26.252 460.983 26.828H445.899C446.163 28.244 446.847 29.372 447.951 30.212C449.079 31.028 450.471 31.436 452.127 31.436C454.239 31.436 455.979 30.74 457.347 29.348L459.759 32.12C458.895 33.152 457.803 33.932 456.483 34.46C455.163 34.988 453.675 35.252 452.019 35.252C449.907 35.252 448.047 34.832 446.439 33.992C444.831 33.152 443.583 31.988 442.695 30.5C441.831 28.988 441.399 27.284 441.399 25.388C441.399 23.516 441.819 21.836 442.659 20.348C443.523 18.836 444.711 17.66 446.223 16.82C447.735 15.98 449.439 15.56 451.335 15.56C453.207 15.56 454.875 15.98 456.339 16.82C457.827 17.636 458.979 18.8 459.795 20.312C460.635 21.8 461.055 23.528 461.055 25.496ZM451.335 19.16C449.895 19.16 448.671 19.592 447.663 20.456C446.679 21.296 446.079 22.424 445.863 23.84H456.771C456.579 22.448 455.991 21.32 455.007 20.456C454.023 19.592 452.799 19.16 451.335 19.16ZM465.378 8.288H469.878V35H465.378V8.288ZM484.424 35.252C482.48 35.252 480.728 34.832 479.168 33.992C477.608 33.152 476.384 31.988 475.496 30.5C474.632 28.988 474.2 27.284 474.2 25.388C474.2 23.492 474.632 21.8 475.496 20.312C476.384 18.824 477.608 17.66 479.168 16.82C480.728 15.98 482.48 15.56 484.424 15.56C486.392 15.56 488.156 15.98 489.716 16.82C491.276 17.66 492.488 18.824 493.352 20.312C494.24 21.8 494.684 23.492 494.684 25.388C494.684 27.284 494.24 28.988 493.352 30.5C492.488 31.988 491.276 33.152 489.716 33.992C488.156 34.832 486.392 35.252 484.424 35.252ZM484.424 31.4C486.08 31.4 487.448 30.848 488.528 29.744C489.608 28.64 490.148 27.188 490.148 25.388C490.148 23.588 489.608 22.136 488.528 21.032C487.448 19.928 486.08 19.376 484.424 19.376C482.768 19.376 481.4 19.928 480.32 21.032C479.264 22.136 478.736 23.588 478.736 25.388C478.736 27.188 479.264 28.64 480.32 29.744C481.4 30.848 482.768 31.4 484.424 31.4ZM509.643 15.56C511.515 15.56 513.183 15.968 514.647 16.784C516.135 17.6 517.299 18.752 518.139 20.24C518.979 21.728 519.399 23.444 519.399 25.388C519.399 27.332 518.979 29.06 518.139 30.572C517.299 32.06 516.135 33.212 514.647 34.028C513.183 34.844 511.515 35.252 509.643 35.252C507.051 35.252 504.999 34.388 503.487 32.66V41.984H498.987V15.776H503.271V18.296C504.015 17.384 504.927 16.7 506.007 16.244C507.111 15.788 508.323 15.56 509.643 15.56ZM509.139 31.4C510.795 31.4 512.151 30.848 513.207 29.744C514.287 28.64 514.827 27.188 514.827 25.388C514.827 23.588 514.287 22.136 513.207 21.032C512.151 19.928 510.795 19.376 509.139 19.376C508.059 19.376 507.087 19.628 506.223 20.132C505.359 20.612 504.675 21.308 504.171 22.22C503.667 23.132 503.415 24.188 503.415 25.388C503.415 26.588 503.667 27.644 504.171 28.556C504.675 29.468 505.359 30.176 506.223 30.68C507.087 31.16 508.059 31.4 509.139 31.4ZM523.667 15.776H528.167V35H523.667V15.776ZM525.935 12.608C525.119 12.608 524.435 12.356 523.883 11.852C523.331 11.324 523.055 10.676 523.055 9.908C523.055 9.14 523.331 8.504 523.883 8C524.435 7.472 525.119 7.208 525.935 7.208C526.751 7.208 527.435 7.46 527.987 7.964C528.539 8.444 528.815 9.056 528.815 9.8C528.815 10.592 528.539 11.264 527.987 11.816C527.459 12.344 526.775 12.608 525.935 12.608ZM544.981 15.56C547.405 15.56 549.349 16.268 550.813 17.684C552.277 19.1 553.009 21.2 553.009 23.984V35H548.509V24.56C548.509 22.88 548.113 21.62 547.321 20.78C546.529 19.916 545.401 19.484 543.937 19.484C542.281 19.484 540.973 19.988 540.013 20.996C539.053 21.98 538.573 23.408 538.573 25.28V35H534.073V15.776H538.357V18.26C539.101 17.372 540.037 16.7 541.165 16.244C542.293 15.788 543.565 15.56 544.981 15.56ZM577.973 15.776V32.084C577.973 38.852 574.517 42.236 567.605 42.236C565.757 42.236 564.005 41.996 562.349 41.516C560.693 41.06 559.325 40.388 558.245 39.5L560.261 36.116C561.101 36.812 562.157 37.364 563.429 37.772C564.725 38.204 566.033 38.42 567.353 38.42C569.465 38.42 571.013 37.94 571.997 36.98C572.981 36.02 573.473 34.556 573.473 32.588V31.58C572.705 32.42 571.769 33.056 570.665 33.488C569.561 33.92 568.349 34.136 567.029 34.136C565.205 34.136 563.549 33.752 562.061 32.984C560.597 32.192 559.433 31.088 558.569 29.672C557.729 28.256 557.309 26.636 557.309 24.812C557.309 22.988 557.729 21.38 558.569 19.988C559.433 18.572 560.597 17.48 562.061 16.712C563.549 15.944 565.205 15.56 567.029 15.56C568.421 15.56 569.681 15.788 570.809 16.244C571.961 16.7 572.921 17.396 573.689 18.332V15.776H577.973ZM567.713 30.32C569.417 30.32 570.809 29.816 571.889 28.808C572.993 27.776 573.545 26.444 573.545 24.812C573.545 23.204 572.993 21.896 571.889 20.888C570.809 19.88 569.417 19.376 567.713 19.376C565.985 19.376 564.569 19.88 563.465 20.888C562.385 21.896 561.845 23.204 561.845 24.812C561.845 26.444 562.385 27.776 563.465 28.808C564.569 29.816 565.985 30.32 567.713 30.32ZM605.395 33.956C604.867 34.388 604.219 34.712 603.451 34.928C602.707 35.144 601.915 35.252 601.075 35.252C598.963 35.252 597.331 34.7 596.179 33.596C595.027 32.492 594.451 30.884 594.451 28.772V19.52H591.283V15.92H594.451V11.528H598.951V15.92H604.099V19.52H598.951V28.664C598.951 29.6 599.179 30.32 599.635 30.824C600.091 31.304 600.751 31.544 601.615 31.544C602.623 31.544 603.463 31.28 604.135 30.752L605.395 33.956ZM626.536 25.496C626.536 25.808 626.512 26.252 626.464 26.828H611.38C611.644 28.244 612.328 29.372 613.432 30.212C614.56 31.028 615.952 31.436 617.608 31.436C619.72 31.436 621.46 30.74 622.828 29.348L625.24 32.12C624.376 33.152 623.284 33.932 621.964 34.46C620.644 34.988 619.156 35.252 617.5 35.252C615.388 35.252 613.528 34.832 611.92 33.992C610.312 33.152 609.064 31.988 608.176 30.5C607.312 28.988 606.88 27.284 606.88 25.388C606.88 23.516 607.3 21.836 608.14 20.348C609.004 18.836 610.192 17.66 611.704 16.82C613.216 15.98 614.92 15.56 616.816 15.56C618.688 15.56 620.356 15.98 621.82 16.82C623.308 17.636 624.46 18.8 625.276 20.312C626.116 21.8 626.536 23.528 626.536 25.496ZM616.816 19.16C615.376 19.16 614.152 19.592 613.144 20.456C612.16 21.296 611.56 22.424 611.344 23.84H622.252C622.06 22.448 621.472 21.32 620.488 20.456C619.504 19.592 618.28 19.16 616.816 19.16ZM639.678 35.252C637.686 35.252 635.898 34.832 634.314 33.992C632.73 33.152 631.494 31.988 630.606 30.5C629.718 28.988 629.274 27.284 629.274 25.388C629.274 23.492 629.718 21.8 630.606 20.312C631.494 18.824 632.718 17.66 634.278 16.82C635.862 15.98 637.662 15.56 639.678 15.56C641.574 15.56 643.23 15.944 644.646 16.712C646.086 17.48 647.166 18.584 647.886 20.024L644.43 22.04C643.878 21.152 643.182 20.492 642.342 20.06C641.526 19.604 640.626 19.376 639.642 19.376C637.962 19.376 636.57 19.928 635.466 21.032C634.362 22.112 633.81 23.564 633.81 25.388C633.81 27.212 634.35 28.676 635.43 29.78C636.534 30.86 637.938 31.4 639.642 31.4C640.626 31.4 641.526 31.184 642.342 30.752C643.182 30.296 643.878 29.624 644.43 28.736L647.886 30.752C647.142 32.192 646.05 33.308 644.61 34.1C643.194 34.868 641.55 35.252 639.678 35.252ZM662.508 15.56C664.932 15.56 666.876 16.268 668.34 17.684C669.804 19.1 670.536 21.2 670.536 23.984V35H666.036V24.56C666.036 22.88 665.64 21.62 664.848 20.78C664.056 19.916 662.928 19.484 661.464 19.484C659.808 19.484 658.5 19.988 657.54 20.996C656.58 21.98 656.1 23.408 656.1 25.28V35H651.6V8.288H656.1V18.008C656.844 17.216 657.756 16.616 658.836 16.208C659.94 15.776 661.164 15.56 662.508 15.56ZM687.153 15.56C689.577 15.56 691.521 16.268 692.985 17.684C694.449 19.1 695.181 21.2 695.181 23.984V35H690.681V24.56C690.681 22.88 690.285 21.62 689.493 20.78C688.701 19.916 687.573 19.484 686.109 19.484C684.453 19.484 683.145 19.988 682.185 20.996C681.225 21.98 680.745 23.408 680.745 25.28V35H676.245V15.776H680.529V18.26C681.273 17.372 682.209 16.7 683.337 16.244C684.465 15.788 685.737 15.56 687.153 15.56ZM700.89 15.776H705.39V35H700.89V15.776ZM703.158 12.608C702.342 12.608 701.658 12.356 701.106 11.852C700.554 11.324 700.278 10.676 700.278 9.908C700.278 9.14 700.554 8.504 701.106 8C701.658 7.472 702.342 7.208 703.158 7.208C703.974 7.208 704.658 7.46 705.21 7.964C705.762 8.444 706.038 9.056 706.038 9.8C706.038 10.592 705.762 11.264 705.21 11.816C704.682 12.344 703.998 12.608 703.158 12.608ZM720.116 35.252C718.124 35.252 716.336 34.832 714.752 33.992C713.168 33.152 711.932 31.988 711.044 30.5C710.156 28.988 709.712 27.284 709.712 25.388C709.712 23.492 710.156 21.8 711.044 20.312C711.932 18.824 713.156 17.66 714.716 16.82C716.3 15.98 718.1 15.56 720.116 15.56C722.012 15.56 723.668 15.944 725.084 16.712C726.524 17.48 727.604 18.584 728.324 20.024L724.868 22.04C724.316 21.152 723.62 20.492 722.78 20.06C721.964 19.604 721.064 19.376 720.08 19.376C718.4 19.376 717.008 19.928 715.904 21.032C714.8 22.112 714.248 23.564 714.248 25.388C714.248 27.212 714.788 28.676 715.868 29.78C716.972 30.86 718.376 31.4 720.08 31.4C721.064 31.4 721.964 31.184 722.78 30.752C723.62 30.296 724.316 29.624 724.868 28.736L728.324 30.752C727.58 32.192 726.488 33.308 725.048 34.1C723.632 34.868 721.988 35.252 720.116 35.252ZM739.558 15.56C742.39 15.56 744.55 16.244 746.038 17.612C747.55 18.956 748.306 20.996 748.306 23.732V35H744.058V32.66C743.506 33.5 742.714 34.148 741.682 34.604C740.674 35.036 739.45 35.252 738.01 35.252C736.57 35.252 735.31 35.012 734.23 34.532C733.15 34.028 732.31 33.344 731.71 32.48C731.134 31.592 730.846 30.596 730.846 29.492C730.846 27.764 731.482 26.384 732.754 25.352C734.05 24.296 736.078 23.768 738.838 23.768H743.806V23.48C743.806 22.136 743.398 21.104 742.582 20.384C741.79 19.664 740.602 19.304 739.018 19.304C737.938 19.304 736.87 19.472 735.814 19.808C734.782 20.144 733.906 20.612 733.186 21.212L731.422 17.936C732.43 17.168 733.642 16.58 735.058 16.172C736.474 15.764 737.974 15.56 739.558 15.56ZM738.946 31.976C740.074 31.976 741.07 31.724 741.934 31.22C742.822 30.692 743.446 29.948 743.806 28.988V26.756H739.162C736.57 26.756 735.274 27.608 735.274 29.312C735.274 30.128 735.598 30.776 736.246 31.256C736.894 31.736 737.794 31.976 738.946 31.976ZM754.081 8.288H758.581V35H754.081V8.288ZM780.376 35.252C778.816 35.252 777.292 35.048 775.804 34.64C774.316 34.232 773.128 33.716 772.24 33.092L773.968 29.672C774.832 30.248 775.864 30.716 777.064 31.076C778.288 31.412 779.488 31.58 780.664 31.58C783.352 31.58 784.696 30.872 784.696 29.456C784.696 28.784 784.348 28.316 783.652 28.052C782.98 27.788 781.888 27.536 780.376 27.296C778.792 27.056 777.496 26.78 776.488 26.468C775.504 26.156 774.64 25.616 773.896 24.848C773.176 24.056 772.816 22.964 772.816 21.572C772.816 19.748 773.572 18.296 775.084 17.216C776.62 16.112 778.684 15.56 781.276 15.56C782.596 15.56 783.916 15.716 785.236 16.028C786.556 16.316 787.636 16.712 788.476 17.216L786.748 20.636C785.116 19.676 783.28 19.196 781.24 19.196C779.92 19.196 778.912 19.4 778.216 19.808C777.544 20.192 777.208 20.708 777.208 21.356C777.208 22.076 777.568 22.592 778.288 22.904C779.032 23.192 780.172 23.468 781.708 23.732C783.244 23.972 784.504 24.248 785.488 24.56C786.472 24.872 787.312 25.4 788.008 26.144C788.728 26.888 789.088 27.944 789.088 29.312C789.088 31.112 788.308 32.552 786.748 33.632C785.188 34.712 783.064 35.252 780.376 35.252ZM800.812 26.756L797.464 29.924V35H792.964V8.288H797.464V24.416L806.788 15.776H812.188L804.16 23.84L812.944 35H807.472L800.812 26.756ZM815.675 15.776H820.175V35H815.675V15.776ZM817.943 12.608C817.127 12.608 816.443 12.356 815.891 11.852C815.339 11.324 815.063 10.676 815.063 9.908C815.063 9.14 815.339 8.504 815.891 8C816.443 7.472 817.127 7.208 817.943 7.208C818.759 7.208 819.443 7.46 819.995 7.964C820.547 8.444 820.823 9.056 820.823 9.8C820.823 10.592 820.547 11.264 819.995 11.816C819.467 12.344 818.783 12.608 817.943 12.608ZM826.081 8.288H830.581V35H826.081V8.288ZM836.487 8.288H840.987V35H836.487V8.288ZM852.833 35.252C851.273 35.252 849.749 35.048 848.261 34.64C846.773 34.232 845.585 33.716 844.697 33.092L846.425 29.672C847.289 30.248 848.321 30.716 849.521 31.076C850.745 31.412 851.945 31.58 853.121 31.58C855.809 31.58 857.153 30.872 857.153 29.456C857.153 28.784 856.805 28.316 856.109 28.052C855.437 27.788 854.345 27.536 852.833 27.296C851.249 27.056 849.953 26.78 848.945 26.468C847.961 26.156 847.097 25.616 846.353 24.848C845.633 24.056 845.273 22.964 845.273 21.572C845.273 19.748 846.029 18.296 847.541 17.216C849.077 16.112 851.141 15.56 853.733 15.56C855.053 15.56 856.373 15.716 857.693 16.028C859.013 16.316 860.093 16.712 860.933 17.216L859.205 20.636C857.573 19.676 855.737 19.196 853.697 19.196C852.377 19.196 851.369 19.4 850.673 19.808C850.001 20.192 849.665 20.708 849.665 21.356C849.665 22.076 850.025 22.592 850.745 22.904C851.489 23.192 852.629 23.468 854.165 23.732C855.701 23.972 856.961 24.248 857.945 24.56C858.929 24.872 859.769 25.4 860.465 26.144C861.185 26.888 861.545 27.944 861.545 29.312C861.545 31.112 860.765 32.552 859.205 33.632C857.645 34.712 855.521 35.252 852.833 35.252Z" fill="black"/>
</svg>
