<svg width="671" height="126" viewBox="0 0 671 126" fill="none" xmlns="http://www.w3.org/2000/svg">
<rect x="21" y="44" width="629" height="14" rx="2" fill="#B4E0E0" fill-opacity="0.65"/>
<rect x="21" y="86" width="629" height="14" rx="2" fill="#FFE47A" fill-opacity="0.65"/>
<path d="M51.9132 56.36C49.3692 56.36 47.0652 55.808 45.0012 54.704C42.9612 53.576 41.3532 52.028 40.1772 50.06C39.0252 48.092 38.4492 45.872 38.4492 43.4C38.4492 40.928 39.0372 38.708 40.2132 36.74C41.3892 34.772 42.9972 33.236 45.0372 32.132C47.1012 31.004 49.4052 30.44 51.9492 30.44C54.0132 30.44 55.8972 30.8 57.6012 31.52C59.3052 32.24 60.7452 33.284 61.9212 34.652L58.8972 37.496C57.0732 35.528 54.8292 34.544 52.1652 34.544C50.4372 34.544 48.8892 34.928 47.5212 35.696C46.1532 36.44 45.0852 37.484 44.3172 38.828C43.5492 40.172 43.1652 41.696 43.1652 43.4C43.1652 45.104 43.5492 46.628 44.3172 47.972C45.0852 49.316 46.1532 50.372 47.5212 51.14C48.8892 51.884 50.4372 52.256 52.1652 52.256C54.8292 52.256 57.0732 51.26 58.8972 49.268L61.9212 52.148C60.7452 53.516 59.2932 54.56 57.5652 55.28C55.8612 56 53.9772 56.36 51.9132 56.36ZM73.9104 56.252C71.9664 56.252 70.2144 55.832 68.6544 54.992C67.0944 54.152 65.8704 52.988 64.9824 51.5C64.1184 49.988 63.6864 48.284 63.6864 46.388C63.6864 44.492 64.1184 42.8 64.9824 41.312C65.8704 39.824 67.0944 38.66 68.6544 37.82C70.2144 36.98 71.9664 36.56 73.9104 36.56C75.8784 36.56 77.6424 36.98 79.2024 37.82C80.7624 38.66 81.9744 39.824 82.8384 41.312C83.7264 42.8 84.1704 44.492 84.1704 46.388C84.1704 48.284 83.7264 49.988 82.8384 51.5C81.9744 52.988 80.7624 54.152 79.2024 54.992C77.6424 55.832 75.8784 56.252 73.9104 56.252ZM73.9104 52.4C75.5664 52.4 76.9344 51.848 78.0144 50.744C79.0944 49.64 79.6344 48.188 79.6344 46.388C79.6344 44.588 79.0944 43.136 78.0144 42.032C76.9344 40.928 75.5664 40.376 73.9104 40.376C72.2544 40.376 70.8864 40.928 69.8064 42.032C68.7504 43.136 68.2224 44.588 68.2224 46.388C68.2224 48.188 68.7504 49.64 69.8064 50.744C70.8864 51.848 72.2544 52.4 73.9104 52.4ZM94.4135 56.252C92.8535 56.252 91.3295 56.048 89.8415 55.64C88.3535 55.232 87.1655 54.716 86.2775 54.092L88.0055 50.672C88.8695 51.248 89.9015 51.716 91.1015 52.076C92.3255 52.412 93.5255 52.58 94.7015 52.58C97.3895 52.58 98.7335 51.872 98.7335 50.456C98.7335 49.784 98.3855 49.316 97.6895 49.052C97.0175 48.788 95.9255 48.536 94.4135 48.296C92.8295 48.056 91.5335 47.78 90.5255 47.468C89.5415 47.156 88.6775 46.616 87.9335 45.848C87.2135 45.056 86.8535 43.964 86.8535 42.572C86.8535 40.748 87.6095 39.296 89.1215 38.216C90.6575 37.112 92.7215 36.56 95.3135 36.56C96.6335 36.56 97.9535 36.716 99.2735 37.028C100.593 37.316 101.673 37.712 102.513 38.216L100.785 41.636C99.1535 40.676 97.3175 40.196 95.2775 40.196C93.9575 40.196 92.9495 40.4 92.2535 40.808C91.5815 41.192 91.2455 41.708 91.2455 42.356C91.2455 43.076 91.6055 43.592 92.3255 43.904C93.0695 44.192 94.2095 44.468 95.7455 44.732C97.2815 44.972 98.5415 45.248 99.5255 45.56C100.509 45.872 101.349 46.4 102.045 47.144C102.765 47.888 103.125 48.944 103.125 50.312C103.125 52.112 102.345 53.552 100.785 54.632C99.2255 55.712 97.1015 56.252 94.4135 56.252ZM118.557 54.956C118.029 55.388 117.381 55.712 116.613 55.928C115.869 56.144 115.077 56.252 114.237 56.252C112.125 56.252 110.493 55.7 109.341 54.596C108.189 53.492 107.613 51.884 107.613 49.772V40.52H104.445V36.92H107.613V32.528H112.113V36.92H117.261V40.52H112.113V49.664C112.113 50.6 112.341 51.32 112.797 51.824C113.253 52.304 113.913 52.544 114.777 52.544C115.785 52.544 116.625 52.28 117.297 51.752L118.557 54.956ZM120.935 44.12H130.835V47.864H120.935V44.12ZM154.182 46.496C154.182 46.808 154.158 47.252 154.11 47.828H139.026C139.29 49.244 139.974 50.372 141.078 51.212C142.206 52.028 143.598 52.436 145.254 52.436C147.366 52.436 149.106 51.74 150.474 50.348L152.886 53.12C152.022 54.152 150.93 54.932 149.61 55.46C148.29 55.988 146.802 56.252 145.146 56.252C143.034 56.252 141.174 55.832 139.566 54.992C137.958 54.152 136.71 52.988 135.822 51.5C134.958 49.988 134.526 48.284 134.526 46.388C134.526 44.516 134.946 42.836 135.786 41.348C136.65 39.836 137.838 38.66 139.35 37.82C140.862 36.98 142.566 36.56 144.462 36.56C146.334 36.56 148.002 36.98 149.466 37.82C150.954 38.636 152.106 39.8 152.922 41.312C153.762 42.8 154.182 44.528 154.182 46.496ZM144.462 40.16C143.022 40.16 141.798 40.592 140.79 41.456C139.806 42.296 139.206 43.424 138.99 44.84H149.898C149.706 43.448 149.118 42.32 148.134 41.456C147.15 40.592 145.926 40.16 144.462 40.16ZM166.317 32.672C164.421 32.672 163.473 33.704 163.473 35.768V36.92H168.765V40.52H163.617V56H159.117V40.52H155.949V36.92H159.117V35.696C159.117 33.632 159.717 32.012 160.917 30.836C162.117 29.636 163.809 29.036 165.993 29.036C167.721 29.036 169.077 29.384 170.061 30.08L168.801 33.464C168.033 32.936 167.205 32.672 166.317 32.672ZM179.606 32.672C177.71 32.672 176.762 33.704 176.762 35.768V36.92H182.054V40.52H176.906V56H172.406V40.52H169.238V36.92H172.406V35.696C172.406 33.632 173.006 32.012 174.206 30.836C175.406 29.636 177.098 29.036 179.282 29.036C181.01 29.036 182.366 29.384 183.35 30.08L182.09 33.464C181.322 32.936 180.494 32.672 179.606 32.672ZM187.958 36.776H192.458V56H187.958V36.776ZM190.226 33.608C189.41 33.608 188.726 33.356 188.174 32.852C187.622 32.324 187.346 31.676 187.346 30.908C187.346 30.14 187.622 29.504 188.174 29C188.726 28.472 189.41 28.208 190.226 28.208C191.042 28.208 191.726 28.46 192.278 28.964C192.83 29.444 193.106 30.056 193.106 30.8C193.106 31.592 192.83 32.264 192.278 32.816C191.75 33.344 191.066 33.608 190.226 33.608ZM207.192 56.252C205.2 56.252 203.412 55.832 201.828 54.992C200.244 54.152 199.008 52.988 198.12 51.5C197.232 49.988 196.788 48.284 196.788 46.388C196.788 44.492 197.232 42.8 198.12 41.312C199.008 39.824 200.232 38.66 201.792 37.82C203.376 36.98 205.176 36.56 207.192 36.56C209.088 36.56 210.744 36.944 212.16 37.712C213.6 38.48 214.68 39.584 215.4 41.024L211.944 43.04C211.392 42.152 210.696 41.492 209.856 41.06C209.04 40.604 208.14 40.376 207.156 40.376C205.476 40.376 204.084 40.928 202.98 42.032C201.876 43.112 201.324 44.564 201.324 46.388C201.324 48.212 201.864 49.676 202.944 50.78C204.048 51.86 205.452 52.4 207.156 52.4C208.14 52.4 209.04 52.184 209.856 51.752C210.696 51.296 211.392 50.624 211.944 49.736L215.4 51.752C214.656 53.192 213.564 54.308 212.124 55.1C210.708 55.868 209.064 56.252 207.192 56.252ZM219.29 36.776H223.79V56H219.29V36.776ZM221.558 33.608C220.742 33.608 220.058 33.356 219.506 32.852C218.954 32.324 218.678 31.676 218.678 30.908C218.678 30.14 218.954 29.504 219.506 29C220.058 28.472 220.742 28.208 221.558 28.208C222.374 28.208 223.058 28.46 223.61 28.964C224.162 29.444 224.438 30.056 224.438 30.8C224.438 31.592 224.162 32.264 223.61 32.816C223.082 33.344 222.398 33.608 221.558 33.608ZM247.768 46.496C247.768 46.808 247.744 47.252 247.696 47.828H232.612C232.876 49.244 233.56 50.372 234.664 51.212C235.792 52.028 237.184 52.436 238.84 52.436C240.952 52.436 242.692 51.74 244.06 50.348L246.472 53.12C245.608 54.152 244.516 54.932 243.196 55.46C241.876 55.988 240.388 56.252 238.732 56.252C236.62 56.252 234.76 55.832 233.152 54.992C231.544 54.152 230.296 52.988 229.408 51.5C228.544 49.988 228.112 48.284 228.112 46.388C228.112 44.516 228.532 42.836 229.372 41.348C230.236 39.836 231.424 38.66 232.936 37.82C234.448 36.98 236.152 36.56 238.048 36.56C239.92 36.56 241.588 36.98 243.052 37.82C244.54 38.636 245.692 39.8 246.508 41.312C247.348 42.8 247.768 44.528 247.768 46.496ZM238.048 40.16C236.608 40.16 235.384 40.592 234.376 41.456C233.392 42.296 232.792 43.424 232.576 44.84H243.484C243.292 43.448 242.704 42.32 241.72 41.456C240.736 40.592 239.512 40.16 238.048 40.16ZM262.999 36.56C265.423 36.56 267.367 37.268 268.831 38.684C270.295 40.1 271.027 42.2 271.027 44.984V56H266.527V45.56C266.527 43.88 266.131 42.62 265.339 41.78C264.547 40.916 263.419 40.484 261.955 40.484C260.299 40.484 258.991 40.988 258.031 41.996C257.071 42.98 256.591 44.408 256.591 46.28V56H252.091V36.776H256.375V39.26C257.119 38.372 258.055 37.7 259.183 37.244C260.311 36.788 261.583 36.56 262.999 36.56ZM288.291 54.956C287.763 55.388 287.115 55.712 286.347 55.928C285.603 56.144 284.811 56.252 283.971 56.252C281.859 56.252 280.227 55.7 279.075 54.596C277.923 53.492 277.347 51.884 277.347 49.772V40.52H274.179V36.92H277.347V32.528H281.847V36.92H286.995V40.52H281.847V49.664C281.847 50.6 282.075 51.32 282.531 51.824C282.987 52.304 283.647 52.544 284.511 52.544C285.519 52.544 286.359 52.28 287.031 51.752L288.291 54.956ZM309.754 32.672C307.858 32.672 306.91 33.704 306.91 35.768V36.92H312.202V40.52H307.054V56H302.554V40.52H299.386V36.92H302.554V35.696C302.554 33.632 303.154 32.012 304.354 30.836C305.554 29.636 307.246 29.036 309.43 29.036C311.158 29.036 312.514 29.384 313.498 30.08L312.238 33.464C311.47 32.936 310.642 32.672 309.754 32.672ZM322.398 39.584C323.694 37.568 325.974 36.56 329.238 36.56V40.844C328.854 40.772 328.506 40.736 328.194 40.736C326.442 40.736 325.074 41.252 324.09 42.284C323.106 43.292 322.614 44.756 322.614 46.676V56H318.114V36.776H322.398V39.584ZM350.952 46.496C350.952 46.808 350.928 47.252 350.88 47.828H335.796C336.06 49.244 336.744 50.372 337.848 51.212C338.976 52.028 340.368 52.436 342.024 52.436C344.136 52.436 345.876 51.74 347.244 50.348L349.656 53.12C348.792 54.152 347.7 54.932 346.38 55.46C345.06 55.988 343.572 56.252 341.916 56.252C339.804 56.252 337.944 55.832 336.336 54.992C334.728 54.152 333.48 52.988 332.592 51.5C331.728 49.988 331.296 48.284 331.296 46.388C331.296 44.516 331.716 42.836 332.556 41.348C333.42 39.836 334.608 38.66 336.12 37.82C337.632 36.98 339.336 36.56 341.232 36.56C343.104 36.56 344.772 36.98 346.236 37.82C347.724 38.636 348.876 39.8 349.692 41.312C350.532 42.8 350.952 44.528 350.952 46.496ZM341.232 40.16C339.792 40.16 338.568 40.592 337.56 41.456C336.576 42.296 335.976 43.424 335.76 44.84H346.668C346.476 43.448 345.888 42.32 344.904 41.456C343.92 40.592 342.696 40.16 341.232 40.16ZM373.346 46.496C373.346 46.808 373.322 47.252 373.274 47.828H358.19C358.454 49.244 359.138 50.372 360.242 51.212C361.37 52.028 362.762 52.436 364.418 52.436C366.53 52.436 368.27 51.74 369.638 50.348L372.05 53.12C371.186 54.152 370.094 54.932 368.774 55.46C367.454 55.988 365.966 56.252 364.31 56.252C362.198 56.252 360.338 55.832 358.73 54.992C357.122 54.152 355.874 52.988 354.986 51.5C354.122 49.988 353.69 48.284 353.69 46.388C353.69 44.516 354.11 42.836 354.95 41.348C355.814 39.836 357.002 38.66 358.514 37.82C360.026 36.98 361.73 36.56 363.626 36.56C365.498 36.56 367.166 36.98 368.63 37.82C370.118 38.636 371.27 39.8 372.086 41.312C372.926 42.8 373.346 44.528 373.346 46.496ZM363.626 40.16C362.186 40.16 360.962 40.592 359.954 41.456C358.97 42.296 358.37 43.424 358.154 44.84H369.062C368.87 43.448 368.282 42.32 367.298 41.456C366.314 40.592 365.09 40.16 363.626 40.16ZM377.669 29.288H382.169V56H377.669V29.288ZM395.419 36.56C398.251 36.56 400.411 37.244 401.899 38.612C403.411 39.956 404.167 41.996 404.167 44.732V56H399.919V53.66C399.367 54.5 398.575 55.148 397.543 55.604C396.535 56.036 395.311 56.252 393.871 56.252C392.431 56.252 391.171 56.012 390.091 55.532C389.011 55.028 388.171 54.344 387.571 53.48C386.995 52.592 386.707 51.596 386.707 50.492C386.707 48.764 387.343 47.384 388.615 46.352C389.911 45.296 391.939 44.768 394.699 44.768H399.667V44.48C399.667 43.136 399.259 42.104 398.443 41.384C397.651 40.664 396.463 40.304 394.879 40.304C393.799 40.304 392.731 40.472 391.675 40.808C390.643 41.144 389.767 41.612 389.047 42.212L387.283 38.936C388.291 38.168 389.503 37.58 390.919 37.172C392.335 36.764 393.835 36.56 395.419 36.56ZM394.807 52.976C395.935 52.976 396.931 52.724 397.795 52.22C398.683 51.692 399.307 50.948 399.667 49.988V47.756H395.023C392.431 47.756 391.135 48.608 391.135 50.312C391.135 51.128 391.459 51.776 392.107 52.256C392.755 52.736 393.655 52.976 394.807 52.976ZM420.85 36.56C423.274 36.56 425.218 37.268 426.682 38.684C428.146 40.1 428.878 42.2 428.878 44.984V56H424.378V45.56C424.378 43.88 423.982 42.62 423.19 41.78C422.398 40.916 421.27 40.484 419.806 40.484C418.15 40.484 416.842 40.988 415.882 41.996C414.922 42.98 414.442 44.408 414.442 46.28V56H409.942V36.776H414.226V39.26C414.97 38.372 415.906 37.7 417.034 37.244C418.162 36.788 419.434 36.56 420.85 36.56ZM443.583 56.252C441.591 56.252 439.803 55.832 438.219 54.992C436.635 54.152 435.399 52.988 434.511 51.5C433.623 49.988 433.179 48.284 433.179 46.388C433.179 44.492 433.623 42.8 434.511 41.312C435.399 39.824 436.623 38.66 438.183 37.82C439.767 36.98 441.567 36.56 443.583 36.56C445.479 36.56 447.135 36.944 448.551 37.712C449.991 38.48 451.071 39.584 451.791 41.024L448.335 43.04C447.783 42.152 447.087 41.492 446.247 41.06C445.431 40.604 444.531 40.376 443.547 40.376C441.867 40.376 440.475 40.928 439.371 42.032C438.267 43.112 437.715 44.564 437.715 46.388C437.715 48.212 438.255 49.676 439.335 50.78C440.439 51.86 441.843 52.4 443.547 52.4C444.531 52.4 445.431 52.184 446.247 51.752C447.087 51.296 447.783 50.624 448.335 49.736L451.791 51.752C451.047 53.192 449.955 54.308 448.515 55.1C447.099 55.868 445.455 56.252 443.583 56.252ZM473.471 46.496C473.471 46.808 473.447 47.252 473.399 47.828H458.315C458.579 49.244 459.263 50.372 460.367 51.212C461.495 52.028 462.887 52.436 464.543 52.436C466.655 52.436 468.395 51.74 469.763 50.348L472.175 53.12C471.311 54.152 470.219 54.932 468.899 55.46C467.579 55.988 466.091 56.252 464.435 56.252C462.323 56.252 460.463 55.832 458.855 54.992C457.247 54.152 455.999 52.988 455.111 51.5C454.247 49.988 453.815 48.284 453.815 46.388C453.815 44.516 454.235 42.836 455.075 41.348C455.939 39.836 457.127 38.66 458.639 37.82C460.151 36.98 461.855 36.56 463.751 36.56C465.623 36.56 467.291 36.98 468.755 37.82C470.243 38.636 471.395 39.8 472.211 41.312C473.051 42.8 473.471 44.528 473.471 46.496ZM463.751 40.16C462.311 40.16 461.087 40.592 460.079 41.456C459.095 42.296 458.495 43.424 458.279 44.84H469.187C468.995 43.448 468.407 42.32 467.423 41.456C466.439 40.592 465.215 40.16 463.751 40.16ZM493.683 56.252C492.123 56.252 490.599 56.048 489.111 55.64C487.623 55.232 486.435 54.716 485.547 54.092L487.275 50.672C488.139 51.248 489.171 51.716 490.371 52.076C491.595 52.412 492.795 52.58 493.971 52.58C496.659 52.58 498.003 51.872 498.003 50.456C498.003 49.784 497.655 49.316 496.959 49.052C496.287 48.788 495.195 48.536 493.683 48.296C492.099 48.056 490.803 47.78 489.795 47.468C488.811 47.156 487.947 46.616 487.203 45.848C486.483 45.056 486.123 43.964 486.123 42.572C486.123 40.748 486.879 39.296 488.391 38.216C489.927 37.112 491.991 36.56 494.583 36.56C495.903 36.56 497.223 36.716 498.543 37.028C499.863 37.316 500.943 37.712 501.783 38.216L500.055 41.636C498.423 40.676 496.587 40.196 494.547 40.196C493.227 40.196 492.219 40.4 491.523 40.808C490.851 41.192 490.515 41.708 490.515 42.356C490.515 43.076 490.875 43.592 491.595 43.904C492.339 44.192 493.479 44.468 495.015 44.732C496.551 44.972 497.811 45.248 498.795 45.56C499.779 45.872 500.619 46.4 501.315 47.144C502.035 47.888 502.395 48.944 502.395 50.312C502.395 52.112 501.615 53.552 500.055 54.632C498.495 55.712 496.371 56.252 493.683 56.252ZM524.342 46.496C524.342 46.808 524.318 47.252 524.27 47.828H509.186C509.45 49.244 510.134 50.372 511.238 51.212C512.366 52.028 513.758 52.436 515.414 52.436C517.526 52.436 519.266 51.74 520.634 50.348L523.046 53.12C522.182 54.152 521.09 54.932 519.77 55.46C518.45 55.988 516.962 56.252 515.306 56.252C513.194 56.252 511.334 55.832 509.726 54.992C508.118 54.152 506.87 52.988 505.982 51.5C505.118 49.988 504.686 48.284 504.686 46.388C504.686 44.516 505.106 42.836 505.946 41.348C506.81 39.836 507.998 38.66 509.51 37.82C511.022 36.98 512.726 36.56 514.622 36.56C516.494 36.56 518.162 36.98 519.626 37.82C521.114 38.636 522.266 39.8 523.082 41.312C523.922 42.8 524.342 44.528 524.342 46.496ZM514.622 40.16C513.182 40.16 511.958 40.592 510.95 41.456C509.966 42.296 509.366 43.424 509.15 44.84H520.058C519.866 43.448 519.278 42.32 518.294 41.456C517.31 40.592 516.086 40.16 514.622 40.16ZM532.949 39.584C534.245 37.568 536.525 36.56 539.789 36.56V40.844C539.405 40.772 539.057 40.736 538.745 40.736C536.993 40.736 535.625 41.252 534.641 42.284C533.657 43.292 533.165 44.756 533.165 46.676V56H528.665V36.776H532.949V39.584ZM562.309 36.776L554.065 56H549.421L541.177 36.776H545.857L551.833 51.032L557.989 36.776H562.309ZM565.122 36.776H569.622V56H565.122V36.776ZM567.39 33.608C566.574 33.608 565.89 33.356 565.338 32.852C564.786 32.324 564.51 31.676 564.51 30.908C564.51 30.14 564.786 29.504 565.338 29C565.89 28.472 566.574 28.208 567.39 28.208C568.206 28.208 568.89 28.46 569.442 28.964C569.994 29.444 570.27 30.056 570.27 30.8C570.27 31.592 569.994 32.264 569.442 32.816C568.914 33.344 568.23 33.608 567.39 33.608ZM584.348 56.252C582.356 56.252 580.568 55.832 578.984 54.992C577.4 54.152 576.164 52.988 575.276 51.5C574.388 49.988 573.944 48.284 573.944 46.388C573.944 44.492 574.388 42.8 575.276 41.312C576.164 39.824 577.388 38.66 578.948 37.82C580.532 36.98 582.332 36.56 584.348 36.56C586.244 36.56 587.9 36.944 589.316 37.712C590.756 38.48 591.836 39.584 592.556 41.024L589.1 43.04C588.548 42.152 587.852 41.492 587.012 41.06C586.196 40.604 585.296 40.376 584.312 40.376C582.632 40.376 581.24 40.928 580.136 42.032C579.032 43.112 578.48 44.564 578.48 46.388C578.48 48.212 579.02 49.676 580.1 50.78C581.204 51.86 582.608 52.4 584.312 52.4C585.296 52.4 586.196 52.184 587.012 51.752C587.852 51.296 588.548 50.624 589.1 49.736L592.556 51.752C591.812 53.192 590.72 54.308 589.28 55.1C587.864 55.868 586.22 56.252 584.348 56.252ZM614.237 46.496C614.237 46.808 614.213 47.252 614.165 47.828H599.081C599.345 49.244 600.029 50.372 601.133 51.212C602.261 52.028 603.653 52.436 605.309 52.436C607.421 52.436 609.161 51.74 610.529 50.348L612.941 53.12C612.077 54.152 610.985 54.932 609.665 55.46C608.345 55.988 606.857 56.252 605.201 56.252C603.089 56.252 601.229 55.832 599.621 54.992C598.013 54.152 596.765 52.988 595.877 51.5C595.013 49.988 594.581 48.284 594.581 46.388C594.581 44.516 595.001 42.836 595.841 41.348C596.705 39.836 597.893 38.66 599.405 37.82C600.917 36.98 602.621 36.56 604.517 36.56C606.389 36.56 608.057 36.98 609.521 37.82C611.009 38.636 612.161 39.8 612.977 41.312C613.817 42.8 614.237 44.528 614.237 46.496ZM604.517 40.16C603.077 40.16 601.853 40.592 600.845 41.456C599.861 42.296 599.261 43.424 599.045 44.84H609.953C609.761 43.448 609.173 42.32 608.189 41.456C607.205 40.592 605.981 40.16 604.517 40.16ZM624.499 56.252C622.939 56.252 621.415 56.048 619.927 55.64C618.439 55.232 617.251 54.716 616.363 54.092L618.091 50.672C618.955 51.248 619.987 51.716 621.187 52.076C622.411 52.412 623.611 52.58 624.787 52.58C627.475 52.58 628.819 51.872 628.819 50.456C628.819 49.784 628.471 49.316 627.775 49.052C627.103 48.788 626.011 48.536 624.499 48.296C622.915 48.056 621.619 47.78 620.611 47.468C619.627 47.156 618.763 46.616 618.019 45.848C617.299 45.056 616.939 43.964 616.939 42.572C616.939 40.748 617.695 39.296 619.207 38.216C620.743 37.112 622.807 36.56 625.399 36.56C626.719 36.56 628.039 36.716 629.359 37.028C630.679 37.316 631.759 37.712 632.599 38.216L630.871 41.636C629.239 40.676 627.403 40.196 625.363 40.196C624.043 40.196 623.035 40.4 622.339 40.808C621.667 41.192 621.331 41.708 621.331 42.356C621.331 43.076 621.691 43.592 622.411 43.904C623.155 44.192 624.295 44.468 625.831 44.732C627.367 44.972 628.627 45.248 629.611 45.56C630.595 45.872 631.435 46.4 632.131 47.144C632.851 47.888 633.211 48.944 633.211 50.312C633.211 52.112 632.431 53.552 630.871 54.632C629.311 55.712 627.187 56.252 624.499 56.252ZM84.5027 73.288V100H80.1827V97.516C79.4387 98.428 78.5147 99.112 77.4107 99.568C76.3307 100.024 75.1307 100.252 73.8107 100.252C71.9627 100.252 70.2947 99.844 68.8067 99.028C67.3427 98.212 66.1907 97.06 65.3507 95.572C64.5107 94.06 64.0907 92.332 64.0907 90.388C64.0907 88.444 64.5107 86.728 65.3507 85.24C66.1907 83.752 67.3427 82.6 68.8067 81.784C70.2947 80.968 71.9627 80.56 73.8107 80.56C75.0827 80.56 76.2467 80.776 77.3027 81.208C78.3587 81.64 79.2587 82.288 80.0027 83.152V73.288H84.5027ZM74.3507 96.4C75.4307 96.4 76.4027 96.16 77.2667 95.68C78.1307 95.176 78.8147 94.468 79.3187 93.556C79.8227 92.644 80.0747 91.588 80.0747 90.388C80.0747 89.188 79.8227 88.132 79.3187 87.22C78.8147 86.308 78.1307 85.612 77.2667 85.132C76.4027 84.628 75.4307 84.376 74.3507 84.376C73.2707 84.376 72.2987 84.628 71.4347 85.132C70.5707 85.612 69.8867 86.308 69.3827 87.22C68.8787 88.132 68.6267 89.188 68.6267 90.388C68.6267 91.588 68.8787 92.644 69.3827 93.556C69.8867 94.468 70.5707 95.176 71.4347 95.68C72.2987 96.16 73.2707 96.4 74.3507 96.4ZM108.462 90.496C108.462 90.808 108.438 91.252 108.39 91.828H93.3055C93.5695 93.244 94.2535 94.372 95.3575 95.212C96.4855 96.028 97.8775 96.436 99.5335 96.436C101.646 96.436 103.386 95.74 104.754 94.348L107.166 97.12C106.302 98.152 105.21 98.932 103.89 99.46C102.57 99.988 101.082 100.252 99.4255 100.252C97.3135 100.252 95.4535 99.832 93.8455 98.992C92.2375 98.152 90.9895 96.988 90.1015 95.5C89.2375 93.988 88.8055 92.284 88.8055 90.388C88.8055 88.516 89.2255 86.836 90.0655 85.348C90.9295 83.836 92.1175 82.66 93.6295 81.82C95.1415 80.98 96.8455 80.56 98.7415 80.56C100.614 80.56 102.282 80.98 103.746 81.82C105.234 82.636 106.386 83.8 107.202 85.312C108.042 86.8 108.462 88.528 108.462 90.496ZM98.7415 84.16C97.3015 84.16 96.0775 84.592 95.0695 85.456C94.0855 86.296 93.4855 87.424 93.2695 88.84H104.178C103.986 87.448 103.398 86.32 102.414 85.456C101.43 84.592 100.206 84.16 98.7415 84.16ZM112.784 73.288H117.284V100H112.784V73.288ZM123.19 80.776H127.69V100H123.19V80.776ZM125.458 77.608C124.642 77.608 123.958 77.356 123.406 76.852C122.854 76.324 122.578 75.676 122.578 74.908C122.578 74.14 122.854 73.504 123.406 73C123.958 72.472 124.642 72.208 125.458 72.208C126.274 72.208 126.958 72.46 127.51 72.964C128.062 73.444 128.338 74.056 128.338 74.8C128.338 75.592 128.062 76.264 127.51 76.816C126.982 77.344 126.298 77.608 125.458 77.608ZM151.597 80.776L143.353 100H138.709L130.465 80.776H135.145L141.121 95.032L147.277 80.776H151.597ZM171.954 90.496C171.954 90.808 171.93 91.252 171.882 91.828H156.798C157.062 93.244 157.746 94.372 158.85 95.212C159.978 96.028 161.37 96.436 163.026 96.436C165.138 96.436 166.878 95.74 168.246 94.348L170.658 97.12C169.794 98.152 168.702 98.932 167.382 99.46C166.062 99.988 164.574 100.252 162.918 100.252C160.806 100.252 158.946 99.832 157.338 98.992C155.73 98.152 154.482 96.988 153.594 95.5C152.73 93.988 152.298 92.284 152.298 90.388C152.298 88.516 152.718 86.836 153.558 85.348C154.422 83.836 155.61 82.66 157.122 81.82C158.634 80.98 160.338 80.56 162.234 80.56C164.106 80.56 165.774 80.98 167.238 81.82C168.726 82.636 169.878 83.8 170.694 85.312C171.534 86.8 171.954 88.528 171.954 90.496ZM162.234 84.16C160.794 84.16 159.57 84.592 158.562 85.456C157.578 86.296 156.978 87.424 156.762 88.84H167.67C167.478 87.448 166.89 86.32 165.906 85.456C164.922 84.592 163.698 84.16 162.234 84.16ZM180.56 83.584C181.856 81.568 184.136 80.56 187.4 80.56V84.844C187.016 84.772 186.668 84.736 186.356 84.736C184.604 84.736 183.236 85.252 182.252 86.284C181.268 87.292 180.776 88.756 180.776 90.676V100H176.276V80.776H180.56V83.584ZM209.114 90.496C209.114 90.808 209.09 91.252 209.042 91.828H193.958C194.222 93.244 194.906 94.372 196.01 95.212C197.138 96.028 198.53 96.436 200.186 96.436C202.298 96.436 204.038 95.74 205.406 94.348L207.818 97.12C206.954 98.152 205.862 98.932 204.542 99.46C203.222 99.988 201.734 100.252 200.078 100.252C197.966 100.252 196.106 99.832 194.498 98.992C192.89 98.152 191.642 96.988 190.754 95.5C189.89 93.988 189.458 92.284 189.458 90.388C189.458 88.516 189.878 86.836 190.718 85.348C191.582 83.836 192.77 82.66 194.282 81.82C195.794 80.98 197.498 80.56 199.394 80.56C201.266 80.56 202.934 80.98 204.398 81.82C205.886 82.636 207.038 83.8 207.854 85.312C208.694 86.8 209.114 88.528 209.114 90.496ZM199.394 84.16C197.954 84.16 196.73 84.592 195.722 85.456C194.738 86.296 194.138 87.424 193.922 88.84H204.83C204.638 87.448 204.05 86.32 203.066 85.456C202.082 84.592 200.858 84.16 199.394 84.16ZM232.264 73.288V100H227.944V97.516C227.2 98.428 226.276 99.112 225.172 99.568C224.092 100.024 222.892 100.252 221.572 100.252C219.724 100.252 218.056 99.844 216.568 99.028C215.104 98.212 213.952 97.06 213.112 95.572C212.272 94.06 211.852 92.332 211.852 90.388C211.852 88.444 212.272 86.728 213.112 85.24C213.952 83.752 215.104 82.6 216.568 81.784C218.056 80.968 219.724 80.56 221.572 80.56C222.844 80.56 224.008 80.776 225.064 81.208C226.12 81.64 227.02 82.288 227.764 83.152V73.288H232.264ZM222.112 96.4C223.192 96.4 224.164 96.16 225.028 95.68C225.892 95.176 226.576 94.468 227.08 93.556C227.584 92.644 227.836 91.588 227.836 90.388C227.836 89.188 227.584 88.132 227.08 87.22C226.576 86.308 225.892 85.612 225.028 85.132C224.164 84.628 223.192 84.376 222.112 84.376C221.032 84.376 220.06 84.628 219.196 85.132C218.332 85.612 217.648 86.308 217.144 87.22C216.64 88.132 216.388 89.188 216.388 90.388C216.388 91.588 216.64 92.644 217.144 93.556C217.648 94.468 218.332 95.176 219.196 95.68C220.06 96.16 221.032 96.4 222.112 96.4ZM258.756 80.56C260.628 80.56 262.296 80.968 263.76 81.784C265.248 82.6 266.412 83.752 267.252 85.24C268.092 86.728 268.512 88.444 268.512 90.388C268.512 92.332 268.092 94.06 267.252 95.572C266.412 97.06 265.248 98.212 263.76 99.028C262.296 99.844 260.628 100.252 258.756 100.252C257.436 100.252 256.224 100.024 255.12 99.568C254.04 99.112 253.128 98.428 252.384 97.516V100H248.1V73.288H252.6V83.116C253.368 82.276 254.268 81.64 255.3 81.208C256.356 80.776 257.508 80.56 258.756 80.56ZM258.252 96.4C259.908 96.4 261.264 95.848 262.32 94.744C263.4 93.64 263.94 92.188 263.94 90.388C263.94 88.588 263.4 87.136 262.32 86.032C261.264 84.928 259.908 84.376 258.252 84.376C257.172 84.376 256.2 84.628 255.336 85.132C254.472 85.612 253.788 86.308 253.284 87.22C252.78 88.132 252.528 89.188 252.528 90.388C252.528 91.588 252.78 92.644 253.284 93.556C253.788 94.468 254.472 95.176 255.336 95.68C256.2 96.16 257.172 96.4 258.252 96.4ZM290.253 80.776L281.253 101.548C280.413 103.636 279.393 105.1 278.193 105.94C276.993 106.804 275.541 107.236 273.837 107.236C272.877 107.236 271.929 107.08 270.993 106.768C270.057 106.456 269.289 106.024 268.689 105.472L270.489 102.16C270.921 102.568 271.425 102.892 272.001 103.132C272.601 103.372 273.201 103.492 273.801 103.492C274.593 103.492 275.241 103.288 275.745 102.88C276.273 102.472 276.753 101.788 277.185 100.828L277.509 100.072L269.121 80.776H273.801L279.849 94.996L285.933 80.776H290.253ZM311.835 100.252C309.843 100.252 308.055 99.832 306.471 98.992C304.887 98.152 303.651 96.988 302.763 95.5C301.875 93.988 301.431 92.284 301.431 90.388C301.431 88.492 301.875 86.8 302.763 85.312C303.651 83.824 304.875 82.66 306.435 81.82C308.019 80.98 309.819 80.56 311.835 80.56C313.731 80.56 315.387 80.944 316.803 81.712C318.243 82.48 319.323 83.584 320.043 85.024L316.587 87.04C316.035 86.152 315.339 85.492 314.499 85.06C313.683 84.604 312.783 84.376 311.799 84.376C310.119 84.376 308.727 84.928 307.623 86.032C306.519 87.112 305.967 88.564 305.967 90.388C305.967 92.212 306.507 93.676 307.587 94.78C308.691 95.86 310.095 96.4 311.799 96.4C312.783 96.4 313.683 96.184 314.499 95.752C315.339 95.296 316.035 94.624 316.587 93.736L320.043 95.752C319.299 97.192 318.207 98.308 316.767 99.1C315.351 99.868 313.707 100.252 311.835 100.252ZM332.291 100.252C330.347 100.252 328.595 99.832 327.035 98.992C325.475 98.152 324.251 96.988 323.363 95.5C322.499 93.988 322.067 92.284 322.067 90.388C322.067 88.492 322.499 86.8 323.363 85.312C324.251 83.824 325.475 82.66 327.035 81.82C328.595 80.98 330.347 80.56 332.291 80.56C334.259 80.56 336.023 80.98 337.583 81.82C339.143 82.66 340.355 83.824 341.219 85.312C342.107 86.8 342.551 88.492 342.551 90.388C342.551 92.284 342.107 93.988 341.219 95.5C340.355 96.988 339.143 98.152 337.583 98.992C336.023 99.832 334.259 100.252 332.291 100.252ZM332.291 96.4C333.947 96.4 335.315 95.848 336.395 94.744C337.475 93.64 338.015 92.188 338.015 90.388C338.015 88.588 337.475 87.136 336.395 86.032C335.315 84.928 333.947 84.376 332.291 84.376C330.635 84.376 329.267 84.928 328.187 86.032C327.131 87.136 326.603 88.588 326.603 90.388C326.603 92.188 327.131 93.64 328.187 94.744C329.267 95.848 330.635 96.4 332.291 96.4ZM346.854 73.288H351.354V100H346.854V73.288ZM357.261 73.288H361.761V100H357.261V73.288ZM385.739 90.496C385.739 90.808 385.715 91.252 385.667 91.828H370.583C370.847 93.244 371.531 94.372 372.635 95.212C373.763 96.028 375.155 96.436 376.811 96.436C378.923 96.436 380.663 95.74 382.031 94.348L384.443 97.12C383.579 98.152 382.487 98.932 381.167 99.46C379.847 99.988 378.359 100.252 376.703 100.252C374.591 100.252 372.731 99.832 371.123 98.992C369.515 98.152 368.267 96.988 367.379 95.5C366.515 93.988 366.083 92.284 366.083 90.388C366.083 88.516 366.503 86.836 367.343 85.348C368.207 83.836 369.395 82.66 370.907 81.82C372.419 80.98 374.123 80.56 376.019 80.56C377.891 80.56 379.559 80.98 381.023 81.82C382.511 82.636 383.663 83.8 384.479 85.312C385.319 86.8 385.739 88.528 385.739 90.496ZM376.019 84.16C374.579 84.16 373.355 84.592 372.347 85.456C371.363 86.296 370.763 87.424 370.547 88.84H381.455C381.263 87.448 380.675 86.32 379.691 85.456C378.707 84.592 377.483 84.16 376.019 84.16ZM409.141 80.776V97.084C409.141 103.852 405.685 107.236 398.773 107.236C396.925 107.236 395.173 106.996 393.517 106.516C391.861 106.06 390.493 105.388 389.413 104.5L391.429 101.116C392.269 101.812 393.325 102.364 394.597 102.772C395.893 103.204 397.201 103.42 398.521 103.42C400.633 103.42 402.181 102.94 403.165 101.98C404.149 101.02 404.641 99.556 404.641 97.588V96.58C403.873 97.42 402.937 98.056 401.833 98.488C400.729 98.92 399.517 99.136 398.197 99.136C396.373 99.136 394.717 98.752 393.229 97.984C391.765 97.192 390.601 96.088 389.737 94.672C388.897 93.256 388.477 91.636 388.477 89.812C388.477 87.988 388.897 86.38 389.737 84.988C390.601 83.572 391.765 82.48 393.229 81.712C394.717 80.944 396.373 80.56 398.197 80.56C399.589 80.56 400.849 80.788 401.977 81.244C403.129 81.7 404.089 82.396 404.857 83.332V80.776H409.141ZM398.881 95.32C400.585 95.32 401.977 94.816 403.057 93.808C404.161 92.776 404.713 91.444 404.713 89.812C404.713 88.204 404.161 86.896 403.057 85.888C401.977 84.88 400.585 84.376 398.881 84.376C397.153 84.376 395.737 84.88 394.633 85.888C393.553 86.896 393.013 88.204 393.013 89.812C393.013 91.444 393.553 92.776 394.633 93.808C395.737 94.816 397.153 95.32 398.881 95.32ZM433.129 90.496C433.129 90.808 433.105 91.252 433.057 91.828H417.973C418.237 93.244 418.921 94.372 420.025 95.212C421.153 96.028 422.545 96.436 424.201 96.436C426.313 96.436 428.053 95.74 429.421 94.348L431.833 97.12C430.969 98.152 429.877 98.932 428.557 99.46C427.237 99.988 425.749 100.252 424.093 100.252C421.981 100.252 420.121 99.832 418.513 98.992C416.905 98.152 415.657 96.988 414.769 95.5C413.905 93.988 413.473 92.284 413.473 90.388C413.473 88.516 413.893 86.836 414.733 85.348C415.597 83.836 416.785 82.66 418.297 81.82C419.809 80.98 421.513 80.56 423.409 80.56C425.281 80.56 426.949 80.98 428.413 81.82C429.901 82.636 431.053 83.8 431.869 85.312C432.709 86.8 433.129 88.528 433.129 90.496ZM423.409 84.16C421.969 84.16 420.745 84.592 419.737 85.456C418.753 86.296 418.153 87.424 417.937 88.84H428.845C428.653 87.448 428.065 86.32 427.081 85.456C426.097 84.592 424.873 84.16 423.409 84.16ZM453.341 100.252C451.781 100.252 450.257 100.048 448.769 99.64C447.281 99.232 446.093 98.716 445.205 98.092L446.933 94.672C447.797 95.248 448.829 95.716 450.029 96.076C451.253 96.412 452.453 96.58 453.629 96.58C456.317 96.58 457.661 95.872 457.661 94.456C457.661 93.784 457.313 93.316 456.617 93.052C455.945 92.788 454.853 92.536 453.341 92.296C451.757 92.056 450.461 91.78 449.453 91.468C448.469 91.156 447.605 90.616 446.861 89.848C446.141 89.056 445.781 87.964 445.781 86.572C445.781 84.748 446.537 83.296 448.049 82.216C449.585 81.112 451.649 80.56 454.241 80.56C455.561 80.56 456.881 80.716 458.201 81.028C459.521 81.316 460.601 81.712 461.441 82.216L459.713 85.636C458.081 84.676 456.245 84.196 454.205 84.196C452.885 84.196 451.877 84.4 451.181 84.808C450.509 85.192 450.173 85.708 450.173 86.356C450.173 87.076 450.533 87.592 451.253 87.904C451.997 88.192 453.137 88.468 454.673 88.732C456.209 88.972 457.469 89.248 458.453 89.56C459.437 89.872 460.277 90.4 460.973 91.144C461.693 91.888 462.053 92.944 462.053 94.312C462.053 96.112 461.273 97.552 459.713 98.632C458.153 99.712 456.029 100.252 453.341 100.252ZM477.485 98.956C476.957 99.388 476.309 99.712 475.541 99.928C474.797 100.144 474.005 100.252 473.165 100.252C471.053 100.252 469.421 99.7 468.269 98.596C467.117 97.492 466.541 95.884 466.541 93.772V84.52H463.373V80.92H466.541V76.528H471.041V80.92H476.189V84.52H471.041V93.664C471.041 94.6 471.269 95.32 471.725 95.824C472.181 96.304 472.841 96.544 473.705 96.544C474.713 96.544 475.553 96.28 476.225 95.752L477.485 98.956ZM499.798 80.776V100H495.514V97.552C494.794 98.416 493.894 99.088 492.814 99.568C491.734 100.024 490.57 100.252 489.322 100.252C486.754 100.252 484.726 99.544 483.238 98.128C481.774 96.688 481.042 94.564 481.042 91.756V80.776H485.542V91.144C485.542 92.872 485.926 94.168 486.694 95.032C487.486 95.872 488.602 96.292 490.042 96.292C491.65 96.292 492.922 95.8 493.858 94.816C494.818 93.808 495.298 92.368 495.298 90.496V80.776H499.798ZM524.518 73.288V100H520.198V97.516C519.454 98.428 518.53 99.112 517.426 99.568C516.346 100.024 515.146 100.252 513.826 100.252C511.978 100.252 510.31 99.844 508.822 99.028C507.358 98.212 506.206 97.06 505.366 95.572C504.526 94.06 504.106 92.332 504.106 90.388C504.106 88.444 504.526 86.728 505.366 85.24C506.206 83.752 507.358 82.6 508.822 81.784C510.31 80.968 511.978 80.56 513.826 80.56C515.098 80.56 516.262 80.776 517.318 81.208C518.374 81.64 519.274 82.288 520.018 83.152V73.288H524.518ZM514.366 96.4C515.446 96.4 516.418 96.16 517.282 95.68C518.146 95.176 518.83 94.468 519.334 93.556C519.838 92.644 520.09 91.588 520.09 90.388C520.09 89.188 519.838 88.132 519.334 87.22C518.83 86.308 518.146 85.612 517.282 85.132C516.418 84.628 515.446 84.376 514.366 84.376C513.286 84.376 512.314 84.628 511.45 85.132C510.586 85.612 509.902 86.308 509.398 87.22C508.894 88.132 508.642 89.188 508.642 90.388C508.642 91.588 508.894 92.644 509.398 93.556C509.902 94.468 510.586 95.176 511.45 95.68C512.314 96.16 513.286 96.4 514.366 96.4ZM548.477 90.496C548.477 90.808 548.453 91.252 548.405 91.828H533.321C533.585 93.244 534.269 94.372 535.373 95.212C536.501 96.028 537.893 96.436 539.549 96.436C541.661 96.436 543.401 95.74 544.769 94.348L547.181 97.12C546.317 98.152 545.225 98.932 543.905 99.46C542.585 99.988 541.097 100.252 539.441 100.252C537.329 100.252 535.469 99.832 533.861 98.992C532.253 98.152 531.005 96.988 530.117 95.5C529.253 93.988 528.821 92.284 528.821 90.388C528.821 88.516 529.241 86.836 530.081 85.348C530.945 83.836 532.133 82.66 533.645 81.82C535.157 80.98 536.861 80.56 538.757 80.56C540.629 80.56 542.297 80.98 543.761 81.82C545.249 82.636 546.401 83.8 547.217 85.312C548.057 86.8 548.477 88.528 548.477 90.496ZM538.757 84.16C537.317 84.16 536.093 84.592 535.085 85.456C534.101 86.296 533.501 87.424 533.285 88.84H544.193C544.001 87.448 543.413 86.32 542.429 85.456C541.445 84.592 540.221 84.16 538.757 84.16ZM563.708 80.56C566.132 80.56 568.076 81.268 569.54 82.684C571.004 84.1 571.736 86.2 571.736 88.984V100H567.236V89.56C567.236 87.88 566.84 86.62 566.048 85.78C565.256 84.916 564.128 84.484 562.664 84.484C561.008 84.484 559.7 84.988 558.74 85.996C557.78 86.98 557.3 88.408 557.3 90.28V100H552.8V80.776H557.084V83.26C557.828 82.372 558.764 81.7 559.892 81.244C561.02 80.788 562.292 80.56 563.708 80.56ZM589 98.956C588.472 99.388 587.824 99.712 587.056 99.928C586.312 100.144 585.52 100.252 584.68 100.252C582.568 100.252 580.936 99.7 579.784 98.596C578.632 97.492 578.056 95.884 578.056 93.772V84.52H574.888V80.92H578.056V76.528H582.556V80.92H587.704V84.52H582.556V93.664C582.556 94.6 582.784 95.32 583.24 95.824C583.696 96.304 584.356 96.544 585.22 96.544C586.228 96.544 587.068 96.28 587.74 95.752L589 98.956ZM598.642 100.252C597.082 100.252 595.558 100.048 594.07 99.64C592.582 99.232 591.394 98.716 590.506 98.092L592.234 94.672C593.098 95.248 594.13 95.716 595.33 96.076C596.554 96.412 597.754 96.58 598.93 96.58C601.618 96.58 602.962 95.872 602.962 94.456C602.962 93.784 602.614 93.316 601.918 93.052C601.246 92.788 600.154 92.536 598.642 92.296C597.058 92.056 595.762 91.78 594.754 91.468C593.77 91.156 592.906 90.616 592.162 89.848C591.442 89.056 591.082 87.964 591.082 86.572C591.082 84.748 591.838 83.296 593.35 82.216C594.886 81.112 596.95 80.56 599.542 80.56C600.862 80.56 602.182 80.716 603.502 81.028C604.822 81.316 605.902 81.712 606.742 82.216L605.014 85.636C603.382 84.676 601.546 84.196 599.506 84.196C598.186 84.196 597.178 84.4 596.482 84.808C595.81 85.192 595.474 85.708 595.474 86.356C595.474 87.076 595.834 87.592 596.554 87.904C597.298 88.192 598.438 88.468 599.974 88.732C601.51 88.972 602.77 89.248 603.754 89.56C604.738 89.872 605.578 90.4 606.274 91.144C606.994 91.888 607.354 92.944 607.354 94.312C607.354 96.112 606.574 97.552 605.014 98.632C603.454 99.712 601.33 100.252 598.642 100.252Z" fill="black"/>
</svg>
