<svg width="905" height="52" viewBox="0 0 905 52" fill="none" xmlns="http://www.w3.org/2000/svg">
<rect x="61" y="21" width="783" height="14" rx="2" fill="#F4F0DB" fill-opacity="0.65"/>
<path d="M115.48 29.168H102.88L100.396 35H95.572L106.912 9.8H111.52L122.896 35H118L115.48 29.168ZM113.932 25.496L109.18 14.48L104.464 25.496H113.932ZM147.174 33.956C146.646 34.388 145.998 34.712 145.23 34.928C144.486 35.144 143.694 35.252 142.854 35.252C140.742 35.252 139.11 34.7 137.958 33.596C136.806 32.492 136.23 30.884 136.23 28.772V19.52H133.062V15.92H136.23V11.528H140.73V15.92H145.878V19.52H140.73V28.664C140.73 29.6 140.958 30.32 141.414 30.824C141.87 31.304 142.53 31.544 143.394 31.544C144.402 31.544 145.242 31.28 145.914 30.752L147.174 33.956ZM168.315 25.496C168.315 25.808 168.291 26.252 168.243 26.828H153.159C153.423 28.244 154.107 29.372 155.211 30.212C156.339 31.028 157.731 31.436 159.387 31.436C161.499 31.436 163.239 30.74 164.607 29.348L167.019 32.12C166.155 33.152 165.063 33.932 163.743 34.46C162.423 34.988 160.935 35.252 159.279 35.252C157.167 35.252 155.307 34.832 153.699 33.992C152.091 33.152 150.843 31.988 149.955 30.5C149.091 28.988 148.659 27.284 148.659 25.388C148.659 23.516 149.079 21.836 149.919 20.348C150.783 18.836 151.971 17.66 153.483 16.82C154.995 15.98 156.699 15.56 158.595 15.56C160.467 15.56 162.135 15.98 163.599 16.82C165.087 17.636 166.239 18.8 167.055 20.312C167.895 21.8 168.315 23.528 168.315 25.496ZM158.595 19.16C157.155 19.16 155.931 19.592 154.923 20.456C153.939 21.296 153.339 22.424 153.123 23.84H164.031C163.839 22.448 163.251 21.32 162.267 20.456C161.283 19.592 160.059 19.16 158.595 19.16ZM179.454 15.56C182.286 15.56 184.446 16.244 185.934 17.612C187.446 18.956 188.202 20.996 188.202 23.732V35H183.954V32.66C183.402 33.5 182.61 34.148 181.578 34.604C180.57 35.036 179.346 35.252 177.906 35.252C176.466 35.252 175.206 35.012 174.126 34.532C173.046 34.028 172.206 33.344 171.606 32.48C171.03 31.592 170.742 30.596 170.742 29.492C170.742 27.764 171.378 26.384 172.65 25.352C173.946 24.296 175.974 23.768 178.734 23.768H183.702V23.48C183.702 22.136 183.294 21.104 182.478 20.384C181.686 19.664 180.498 19.304 178.914 19.304C177.834 19.304 176.766 19.472 175.71 19.808C174.678 20.144 173.802 20.612 173.082 21.212L171.318 17.936C172.326 17.168 173.538 16.58 174.954 16.172C176.37 15.764 177.87 15.56 179.454 15.56ZM178.842 31.976C179.97 31.976 180.966 31.724 181.83 31.22C182.718 30.692 183.342 29.948 183.702 28.988V26.756H179.058C176.466 26.756 175.17 27.608 175.17 29.312C175.17 30.128 175.494 30.776 176.142 31.256C176.79 31.736 177.69 31.976 178.842 31.976ZM218.241 15.56C220.665 15.56 222.585 16.268 224.001 17.684C225.417 19.076 226.125 21.176 226.125 23.984V35H221.625V24.56C221.625 22.88 221.253 21.62 220.509 20.78C219.765 19.916 218.697 19.484 217.305 19.484C215.793 19.484 214.581 19.988 213.669 20.996C212.757 21.98 212.301 23.396 212.301 25.244V35H207.801V24.56C207.801 22.88 207.429 21.62 206.685 20.78C205.941 19.916 204.873 19.484 203.481 19.484C201.945 19.484 200.721 19.976 199.809 20.96C198.921 21.944 198.477 23.372 198.477 25.244V35H193.977V15.776H198.261V18.224C198.981 17.36 199.881 16.7 200.961 16.244C202.041 15.788 203.241 15.56 204.561 15.56C206.001 15.56 207.273 15.836 208.377 16.388C209.505 16.916 210.393 17.708 211.041 18.764C211.833 17.756 212.853 16.976 214.101 16.424C215.349 15.848 216.729 15.56 218.241 15.56ZM266.089 15.56C268.513 15.56 270.433 16.268 271.849 17.684C273.265 19.076 273.973 21.176 273.973 23.984V35H269.473V24.56C269.473 22.88 269.101 21.62 268.357 20.78C267.613 19.916 266.545 19.484 265.153 19.484C263.641 19.484 262.429 19.988 261.517 20.996C260.605 21.98 260.149 23.396 260.149 25.244V35H255.649V24.56C255.649 22.88 255.277 21.62 254.533 20.78C253.789 19.916 252.721 19.484 251.329 19.484C249.793 19.484 248.569 19.976 247.657 20.96C246.769 21.944 246.325 23.372 246.325 25.244V35H241.825V15.776H246.109V18.224C246.829 17.36 247.729 16.7 248.809 16.244C249.889 15.788 251.089 15.56 252.409 15.56C253.849 15.56 255.121 15.836 256.225 16.388C257.353 16.916 258.241 17.708 258.889 18.764C259.681 17.756 260.701 16.976 261.949 16.424C263.197 15.848 264.577 15.56 266.089 15.56ZM297.971 25.496C297.971 25.808 297.947 26.252 297.899 26.828H282.815C283.079 28.244 283.763 29.372 284.867 30.212C285.995 31.028 287.387 31.436 289.043 31.436C291.155 31.436 292.895 30.74 294.263 29.348L296.675 32.12C295.811 33.152 294.719 33.932 293.399 34.46C292.079 34.988 290.591 35.252 288.935 35.252C286.823 35.252 284.963 34.832 283.355 33.992C281.747 33.152 280.499 31.988 279.611 30.5C278.747 28.988 278.315 27.284 278.315 25.388C278.315 23.516 278.735 21.836 279.575 20.348C280.439 18.836 281.627 17.66 283.139 16.82C284.651 15.98 286.355 15.56 288.251 15.56C290.123 15.56 291.791 15.98 293.255 16.82C294.743 17.636 295.895 18.8 296.711 20.312C297.551 21.8 297.971 23.528 297.971 25.496ZM288.251 19.16C286.811 19.16 285.587 19.592 284.579 20.456C283.595 21.296 282.995 22.424 282.779 23.84H293.687C293.495 22.448 292.907 21.32 291.923 20.456C290.939 19.592 289.715 19.16 288.251 19.16ZM326.558 15.56C328.982 15.56 330.902 16.268 332.318 17.684C333.734 19.076 334.442 21.176 334.442 23.984V35H329.942V24.56C329.942 22.88 329.57 21.62 328.826 20.78C328.082 19.916 327.014 19.484 325.622 19.484C324.11 19.484 322.898 19.988 321.986 20.996C321.074 21.98 320.618 23.396 320.618 25.244V35H316.118V24.56C316.118 22.88 315.746 21.62 315.002 20.78C314.258 19.916 313.19 19.484 311.798 19.484C310.262 19.484 309.038 19.976 308.126 20.96C307.238 21.944 306.794 23.372 306.794 25.244V35H302.294V15.776H306.578V18.224C307.298 17.36 308.198 16.7 309.278 16.244C310.358 15.788 311.558 15.56 312.878 15.56C314.318 15.56 315.59 15.836 316.694 16.388C317.822 16.916 318.71 17.708 319.358 18.764C320.15 17.756 321.17 16.976 322.418 16.424C323.666 15.848 325.046 15.56 326.558 15.56ZM350.848 15.56C352.72 15.56 354.388 15.968 355.852 16.784C357.34 17.6 358.504 18.752 359.344 20.24C360.184 21.728 360.604 23.444 360.604 25.388C360.604 27.332 360.184 29.06 359.344 30.572C358.504 32.06 357.34 33.212 355.852 34.028C354.388 34.844 352.72 35.252 350.848 35.252C349.528 35.252 348.316 35.024 347.212 34.568C346.132 34.112 345.22 33.428 344.476 32.516V35H340.192V8.288H344.692V18.116C345.46 17.276 346.36 16.64 347.392 16.208C348.448 15.776 349.6 15.56 350.848 15.56ZM350.344 31.4C352 31.4 353.356 30.848 354.412 29.744C355.492 28.64 356.032 27.188 356.032 25.388C356.032 23.588 355.492 22.136 354.412 21.032C353.356 19.928 352 19.376 350.344 19.376C349.264 19.376 348.292 19.628 347.428 20.132C346.564 20.612 345.88 21.308 345.376 22.22C344.872 23.132 344.62 24.188 344.62 25.388C344.62 26.588 344.872 27.644 345.376 28.556C345.88 29.468 346.564 30.176 347.428 30.68C348.292 31.16 349.264 31.4 350.344 31.4ZM382.944 25.496C382.944 25.808 382.92 26.252 382.872 26.828H367.788C368.052 28.244 368.736 29.372 369.84 30.212C370.968 31.028 372.36 31.436 374.016 31.436C376.128 31.436 377.868 30.74 379.236 29.348L381.648 32.12C380.784 33.152 379.692 33.932 378.372 34.46C377.052 34.988 375.564 35.252 373.908 35.252C371.796 35.252 369.936 34.832 368.328 33.992C366.72 33.152 365.472 31.988 364.584 30.5C363.72 28.988 363.288 27.284 363.288 25.388C363.288 23.516 363.708 21.836 364.548 20.348C365.412 18.836 366.6 17.66 368.112 16.82C369.624 15.98 371.328 15.56 373.224 15.56C375.096 15.56 376.764 15.98 378.228 16.82C379.716 17.636 380.868 18.8 381.684 20.312C382.524 21.8 382.944 23.528 382.944 25.496ZM373.224 19.16C371.784 19.16 370.56 19.592 369.552 20.456C368.568 21.296 367.968 22.424 367.752 23.84H378.66C378.468 22.448 377.88 21.32 376.896 20.456C375.912 19.592 374.688 19.16 373.224 19.16ZM391.55 18.584C392.846 16.568 395.126 15.56 398.39 15.56V19.844C398.006 19.772 397.658 19.736 397.346 19.736C395.594 19.736 394.226 20.252 393.242 21.284C392.258 22.292 391.766 23.756 391.766 25.676V35H387.266V15.776H391.55V18.584ZM442.321 15.776L435.229 35H430.909L425.941 21.752L420.901 35H416.581L409.525 15.776H413.773L418.849 29.96L424.141 15.776H427.921L433.105 30.032L438.325 15.776H442.321ZM445.415 15.776H449.915V35H445.415V15.776ZM447.683 12.608C446.867 12.608 446.183 12.356 445.631 11.852C445.079 11.324 444.803 10.676 444.803 9.908C444.803 9.14 445.079 8.504 445.631 8C446.183 7.472 446.867 7.208 447.683 7.208C448.499 7.208 449.183 7.46 449.735 7.964C450.287 8.444 450.563 9.056 450.563 9.8C450.563 10.592 450.287 11.264 449.735 11.816C449.207 12.344 448.523 12.608 447.683 12.608ZM455.821 8.288H460.321V35H455.821V8.288ZM466.227 8.288H470.727V35H466.227V8.288ZM490.867 18.584C492.163 16.568 494.443 15.56 497.707 15.56V19.844C497.323 19.772 496.975 19.736 496.663 19.736C494.911 19.736 493.543 20.252 492.559 21.284C491.575 22.292 491.083 23.756 491.083 25.676V35H486.583V15.776H490.867V18.584ZM519.42 25.496C519.42 25.808 519.396 26.252 519.348 26.828H504.264C504.528 28.244 505.212 29.372 506.316 30.212C507.444 31.028 508.836 31.436 510.492 31.436C512.604 31.436 514.344 30.74 515.712 29.348L518.124 32.12C517.26 33.152 516.168 33.932 514.848 34.46C513.528 34.988 512.04 35.252 510.384 35.252C508.272 35.252 506.412 34.832 504.804 33.992C503.196 33.152 501.948 31.988 501.06 30.5C500.196 28.988 499.764 27.284 499.764 25.388C499.764 23.516 500.184 21.836 501.024 20.348C501.888 18.836 503.076 17.66 504.588 16.82C506.1 15.98 507.804 15.56 509.7 15.56C511.572 15.56 513.24 15.98 514.704 16.82C516.192 17.636 517.344 18.8 518.16 20.312C519 21.8 519.42 23.528 519.42 25.496ZM509.7 19.16C508.26 19.16 507.036 19.592 506.028 20.456C505.044 21.296 504.444 22.424 504.228 23.84H515.136C514.944 22.448 514.356 21.32 513.372 20.456C512.388 19.592 511.164 19.16 509.7 19.16ZM530.56 15.56C533.392 15.56 535.552 16.244 537.04 17.612C538.552 18.956 539.308 20.996 539.308 23.732V35H535.06V32.66C534.508 33.5 533.716 34.148 532.684 34.604C531.676 35.036 530.452 35.252 529.012 35.252C527.572 35.252 526.312 35.012 525.232 34.532C524.152 34.028 523.312 33.344 522.712 32.48C522.136 31.592 521.848 30.596 521.848 29.492C521.848 27.764 522.484 26.384 523.756 25.352C525.052 24.296 527.08 23.768 529.84 23.768H534.808V23.48C534.808 22.136 534.4 21.104 533.584 20.384C532.792 19.664 531.604 19.304 530.02 19.304C528.94 19.304 527.872 19.472 526.816 19.808C525.784 20.144 524.908 20.612 524.188 21.212L522.424 17.936C523.432 17.168 524.644 16.58 526.06 16.172C527.476 15.764 528.976 15.56 530.56 15.56ZM529.948 31.976C531.076 31.976 532.072 31.724 532.936 31.22C533.824 30.692 534.448 29.948 534.808 28.988V26.756H530.164C527.572 26.756 526.276 27.608 526.276 29.312C526.276 30.128 526.6 30.776 527.248 31.256C527.896 31.736 528.796 31.976 529.948 31.976ZM554.079 35.252C552.087 35.252 550.299 34.832 548.715 33.992C547.131 33.152 545.895 31.988 545.007 30.5C544.119 28.988 543.675 27.284 543.675 25.388C543.675 23.492 544.119 21.8 545.007 20.312C545.895 18.824 547.119 17.66 548.679 16.82C550.263 15.98 552.063 15.56 554.079 15.56C555.975 15.56 557.631 15.944 559.047 16.712C560.487 17.48 561.567 18.584 562.287 20.024L558.831 22.04C558.279 21.152 557.583 20.492 556.743 20.06C555.927 19.604 555.027 19.376 554.043 19.376C552.363 19.376 550.971 19.928 549.867 21.032C548.763 22.112 548.211 23.564 548.211 25.388C548.211 27.212 548.751 28.676 549.831 29.78C550.935 30.86 552.339 31.4 554.043 31.4C555.027 31.4 555.927 31.184 556.743 30.752C557.583 30.296 558.279 29.624 558.831 28.736L562.287 30.752C561.543 32.192 560.451 33.308 559.011 34.1C557.595 34.868 555.951 35.252 554.079 35.252ZM576.909 15.56C579.333 15.56 581.277 16.268 582.741 17.684C584.205 19.1 584.937 21.2 584.937 23.984V35H580.437V24.56C580.437 22.88 580.041 21.62 579.249 20.78C578.457 19.916 577.329 19.484 575.865 19.484C574.209 19.484 572.901 19.988 571.941 20.996C570.981 21.98 570.501 23.408 570.501 25.28V35H566.001V8.288H570.501V18.008C571.245 17.216 572.157 16.616 573.237 16.208C574.341 15.776 575.565 15.56 576.909 15.56ZM609.235 35.252C607.291 35.252 605.539 34.832 603.979 33.992C602.419 33.152 601.195 31.988 600.307 30.5C599.443 28.988 599.011 27.284 599.011 25.388C599.011 23.492 599.443 21.8 600.307 20.312C601.195 18.824 602.419 17.66 603.979 16.82C605.539 15.98 607.291 15.56 609.235 15.56C611.203 15.56 612.967 15.98 614.527 16.82C616.087 17.66 617.299 18.824 618.163 20.312C619.051 21.8 619.495 23.492 619.495 25.388C619.495 27.284 619.051 28.988 618.163 30.5C617.299 31.988 616.087 33.152 614.527 33.992C612.967 34.832 611.203 35.252 609.235 35.252ZM609.235 31.4C610.891 31.4 612.259 30.848 613.339 29.744C614.419 28.64 614.959 27.188 614.959 25.388C614.959 23.588 614.419 22.136 613.339 21.032C612.259 19.928 610.891 19.376 609.235 19.376C607.579 19.376 606.211 19.928 605.131 21.032C604.075 22.136 603.547 23.588 603.547 25.388C603.547 27.188 604.075 28.64 605.131 29.744C606.211 30.848 607.579 31.4 609.235 31.4ZM642.41 15.776V35H638.126V32.552C637.406 33.416 636.506 34.088 635.426 34.568C634.346 35.024 633.182 35.252 631.934 35.252C629.366 35.252 627.338 34.544 625.85 33.128C624.386 31.688 623.654 29.564 623.654 26.756V15.776H628.154V26.144C628.154 27.872 628.538 29.168 629.306 30.032C630.098 30.872 631.214 31.292 632.654 31.292C634.262 31.292 635.534 30.8 636.47 29.816C637.43 28.808 637.91 27.368 637.91 25.496V15.776H642.41ZM659.858 33.956C659.33 34.388 658.682 34.712 657.914 34.928C657.17 35.144 656.378 35.252 655.538 35.252C653.426 35.252 651.794 34.7 650.642 33.596C649.49 32.492 648.914 30.884 648.914 28.772V19.52H645.746V15.92H648.914V11.528H653.414V15.92H658.562V19.52H653.414V28.664C653.414 29.6 653.642 30.32 654.098 30.824C654.554 31.304 655.214 31.544 656.078 31.544C657.086 31.544 657.926 31.28 658.598 30.752L659.858 33.956ZM679.449 35.252C677.889 35.252 676.365 35.048 674.877 34.64C673.389 34.232 672.201 33.716 671.313 33.092L673.041 29.672C673.905 30.248 674.937 30.716 676.137 31.076C677.361 31.412 678.561 31.58 679.737 31.58C682.425 31.58 683.769 30.872 683.769 29.456C683.769 28.784 683.421 28.316 682.725 28.052C682.053 27.788 680.961 27.536 679.449 27.296C677.865 27.056 676.569 26.78 675.561 26.468C674.577 26.156 673.713 25.616 672.969 24.848C672.249 24.056 671.889 22.964 671.889 21.572C671.889 19.748 672.645 18.296 674.157 17.216C675.693 16.112 677.757 15.56 680.349 15.56C681.669 15.56 682.989 15.716 684.309 16.028C685.629 16.316 686.709 16.712 687.549 17.216L685.821 20.636C684.189 19.676 682.353 19.196 680.313 19.196C678.993 19.196 677.985 19.4 677.289 19.808C676.617 20.192 676.281 20.708 676.281 21.356C676.281 22.076 676.641 22.592 677.361 22.904C678.105 23.192 679.245 23.468 680.781 23.732C682.317 23.972 683.577 24.248 684.561 24.56C685.545 24.872 686.385 25.4 687.081 26.144C687.801 26.888 688.161 27.944 688.161 29.312C688.161 31.112 687.381 32.552 685.821 33.632C684.261 34.712 682.137 35.252 679.449 35.252ZM702.944 15.56C705.368 15.56 707.312 16.268 708.776 17.684C710.24 19.1 710.972 21.2 710.972 23.984V35H706.472V24.56C706.472 22.88 706.076 21.62 705.284 20.78C704.492 19.916 703.364 19.484 701.9 19.484C700.244 19.484 698.936 19.988 697.976 20.996C697.016 21.98 696.536 23.408 696.536 25.28V35H692.036V8.288H696.536V18.008C697.28 17.216 698.192 16.616 699.272 16.208C700.376 15.776 701.6 15.56 702.944 15.56ZM725.496 35.252C723.552 35.252 721.8 34.832 720.24 33.992C718.68 33.152 717.456 31.988 716.568 30.5C715.704 28.988 715.272 27.284 715.272 25.388C715.272 23.492 715.704 21.8 716.568 20.312C717.456 18.824 718.68 17.66 720.24 16.82C721.8 15.98 723.552 15.56 725.496 15.56C727.464 15.56 729.228 15.98 730.788 16.82C732.348 17.66 733.56 18.824 734.424 20.312C735.312 21.8 735.756 23.492 735.756 25.388C735.756 27.284 735.312 28.988 734.424 30.5C733.56 31.988 732.348 33.152 730.788 33.992C729.228 34.832 727.464 35.252 725.496 35.252ZM725.496 31.4C727.152 31.4 728.52 30.848 729.6 29.744C730.68 28.64 731.22 27.188 731.22 25.388C731.22 23.588 730.68 22.136 729.6 21.032C728.52 19.928 727.152 19.376 725.496 19.376C723.84 19.376 722.472 19.928 721.392 21.032C720.336 22.136 719.808 23.588 719.808 25.388C719.808 27.188 720.336 28.64 721.392 29.744C722.472 30.848 723.84 31.4 725.496 31.4ZM744.343 18.584C745.639 16.568 747.919 15.56 751.183 15.56V19.844C750.799 19.772 750.451 19.736 750.139 19.736C748.387 19.736 747.019 20.252 746.035 21.284C745.051 22.292 744.559 23.756 744.559 25.676V35H740.059V15.776H744.343V18.584ZM767.26 33.956C766.732 34.388 766.084 34.712 765.316 34.928C764.572 35.144 763.78 35.252 762.94 35.252C760.828 35.252 759.196 34.7 758.044 33.596C756.892 32.492 756.316 30.884 756.316 28.772V19.52H753.148V15.92H756.316V11.528H760.816V15.92H765.964V19.52H760.816V28.664C760.816 29.6 761.044 30.32 761.5 30.824C761.956 31.304 762.616 31.544 763.48 31.544C764.488 31.544 765.328 31.28 766 30.752L767.26 33.956ZM770.962 8.288H775.462V35H770.962V8.288ZM799.368 15.776L790.368 36.548C789.528 38.636 788.508 40.1 787.308 40.94C786.108 41.804 784.656 42.236 782.952 42.236C781.992 42.236 781.044 42.08 780.108 41.768C779.172 41.456 778.404 41.024 777.804 40.472L779.604 37.16C780.036 37.568 780.54 37.892 781.116 38.132C781.716 38.372 782.316 38.492 782.916 38.492C783.708 38.492 784.356 38.288 784.86 37.88C785.388 37.472 785.868 36.788 786.3 35.828L786.624 35.072L778.236 15.776H782.916L788.964 29.996L795.048 15.776H799.368ZM801.605 9.8H806.933L806.033 26.648H802.469L801.605 9.8ZM804.269 35.252C803.429 35.252 802.733 34.988 802.181 34.46C801.629 33.908 801.353 33.236 801.353 32.444C801.353 31.652 801.629 30.992 802.181 30.464C802.733 29.936 803.429 29.672 804.269 29.672C805.085 29.672 805.757 29.936 806.285 30.464C806.837 30.992 807.113 31.652 807.113 32.444C807.113 33.236 806.837 33.908 806.285 34.46C805.757 34.988 805.085 35.252 804.269 35.252Z" fill="#252525"/>
</svg>
