<svg width="929" height="83" viewBox="0 0 929 83" fill="none" xmlns="http://www.w3.org/2000/svg">
<rect y="23" width="929" height="14" rx="2" fill="#B4E0E0" fill-opacity="0.65"/>
<path d="M51.3692 22.112H55.7972V32.156C54.5012 33.188 52.9892 33.98 51.2612 34.532C49.5332 35.084 47.7572 35.36 45.9332 35.36C43.3652 35.36 41.0492 34.808 38.9852 33.704C36.9212 32.576 35.3012 31.028 34.1252 29.06C32.9492 27.092 32.3612 24.872 32.3612 22.4C32.3612 19.928 32.9492 17.708 34.1252 15.74C35.3012 13.772 36.9212 12.236 38.9852 11.132C41.0732 10.004 43.4132 9.44 46.0052 9.44C48.1172 9.44 50.0372 9.788 51.7652 10.484C53.4932 11.18 54.9452 12.2 56.1212 13.544L53.1692 16.424C51.2492 14.504 48.9332 13.544 46.2212 13.544C44.4452 13.544 42.8612 13.916 41.4692 14.66C40.1012 15.404 39.0212 16.448 38.2292 17.792C37.4612 19.136 37.0772 20.672 37.0772 22.4C37.0772 24.08 37.4612 25.592 38.2292 26.936C39.0212 28.28 40.1012 29.336 41.4692 30.104C42.8612 30.872 44.4332 31.256 46.1852 31.256C48.1532 31.256 49.8812 30.824 51.3692 29.96V22.112ZM79.6098 25.496C79.6098 25.808 79.5858 26.252 79.5378 26.828H64.4538C64.7178 28.244 65.4018 29.372 66.5058 30.212C67.6338 31.028 69.0258 31.436 70.6818 31.436C72.7938 31.436 74.5338 30.74 75.9018 29.348L78.3138 32.12C77.4498 33.152 76.3578 33.932 75.0378 34.46C73.7178 34.988 72.2298 35.252 70.5738 35.252C68.4618 35.252 66.6018 34.832 64.9938 33.992C63.3858 33.152 62.1378 31.988 61.2498 30.5C60.3858 28.988 59.9538 27.284 59.9538 25.388C59.9538 23.516 60.3738 21.836 61.2138 20.348C62.0778 18.836 63.2658 17.66 64.7778 16.82C66.2898 15.98 67.9938 15.56 69.8898 15.56C71.7618 15.56 73.4298 15.98 74.8938 16.82C76.3818 17.636 77.5338 18.8 78.3498 20.312C79.1898 21.8 79.6098 23.528 79.6098 25.496ZM69.8898 19.16C68.4498 19.16 67.2258 19.592 66.2178 20.456C65.2338 21.296 64.6338 22.424 64.4178 23.84H75.3258C75.1338 22.448 74.5458 21.32 73.5618 20.456C72.5778 19.592 71.3538 19.16 69.8898 19.16ZM95.4883 33.956C94.9603 34.388 94.3123 34.712 93.5443 34.928C92.8003 35.144 92.0083 35.252 91.1683 35.252C89.0563 35.252 87.4243 34.7 86.2723 33.596C85.1203 32.492 84.5443 30.884 84.5443 28.772V19.52H81.3763V15.92H84.5443V11.528H89.0443V15.92H94.1923V19.52H89.0443V28.664C89.0443 29.6 89.2723 30.32 89.7283 30.824C90.1843 31.304 90.8443 31.544 91.7083 31.544C92.7163 31.544 93.5563 31.28 94.2283 30.752L95.4883 33.956ZM121.235 35.36C118.691 35.36 116.387 34.808 114.323 33.704C112.283 32.576 110.675 31.028 109.499 29.06C108.347 27.092 107.771 24.872 107.771 22.4C107.771 19.928 108.359 17.708 109.535 15.74C110.711 13.772 112.319 12.236 114.359 11.132C116.423 10.004 118.727 9.44 121.271 9.44C123.335 9.44 125.219 9.8 126.923 10.52C128.627 11.24 130.067 12.284 131.243 13.652L128.219 16.496C126.395 14.528 124.151 13.544 121.487 13.544C119.759 13.544 118.211 13.928 116.843 14.696C115.475 15.44 114.407 16.484 113.639 17.828C112.871 19.172 112.487 20.696 112.487 22.4C112.487 24.104 112.871 25.628 113.639 26.972C114.407 28.316 115.475 29.372 116.843 30.14C118.211 30.884 119.759 31.256 121.487 31.256C124.151 31.256 126.395 30.26 128.219 28.268L131.243 31.148C130.067 32.516 128.615 33.56 126.887 34.28C125.183 35 123.299 35.36 121.235 35.36ZM143.232 35.252C141.288 35.252 139.536 34.832 137.976 33.992C136.416 33.152 135.192 31.988 134.304 30.5C133.44 28.988 133.008 27.284 133.008 25.388C133.008 23.492 133.44 21.8 134.304 20.312C135.192 18.824 136.416 17.66 137.976 16.82C139.536 15.98 141.288 15.56 143.232 15.56C145.2 15.56 146.964 15.98 148.524 16.82C150.084 17.66 151.296 18.824 152.16 20.312C153.048 21.8 153.492 23.492 153.492 25.388C153.492 27.284 153.048 28.988 152.16 30.5C151.296 31.988 150.084 33.152 148.524 33.992C146.964 34.832 145.2 35.252 143.232 35.252ZM143.232 31.4C144.888 31.4 146.256 30.848 147.336 29.744C148.416 28.64 148.956 27.188 148.956 25.388C148.956 23.588 148.416 22.136 147.336 21.032C146.256 19.928 144.888 19.376 143.232 19.376C141.576 19.376 140.208 19.928 139.128 21.032C138.072 22.136 137.544 23.588 137.544 25.388C137.544 27.188 138.072 28.64 139.128 29.744C140.208 30.848 141.576 31.4 143.232 31.4ZM168.704 15.56C171.128 15.56 173.072 16.268 174.536 17.684C176 19.1 176.732 21.2 176.732 23.984V35H172.232V24.56C172.232 22.88 171.836 21.62 171.044 20.78C170.252 19.916 169.124 19.484 167.66 19.484C166.004 19.484 164.696 19.988 163.736 20.996C162.776 21.98 162.296 23.408 162.296 25.28V35H157.796V15.776H162.08V18.26C162.824 17.372 163.76 16.7 164.888 16.244C166.016 15.788 167.288 15.56 168.704 15.56ZM193.348 15.56C195.772 15.56 197.716 16.268 199.18 17.684C200.644 19.1 201.376 21.2 201.376 23.984V35H196.876V24.56C196.876 22.88 196.48 21.62 195.688 20.78C194.896 19.916 193.768 19.484 192.304 19.484C190.648 19.484 189.34 19.988 188.38 20.996C187.42 21.98 186.94 23.408 186.94 25.28V35H182.44V15.776H186.724V18.26C187.468 17.372 188.404 16.7 189.532 16.244C190.66 15.788 191.932 15.56 193.348 15.56ZM225.332 25.496C225.332 25.808 225.308 26.252 225.26 26.828H210.176C210.44 28.244 211.124 29.372 212.228 30.212C213.356 31.028 214.748 31.436 216.404 31.436C218.516 31.436 220.256 30.74 221.624 29.348L224.036 32.12C223.172 33.152 222.08 33.932 220.76 34.46C219.44 34.988 217.952 35.252 216.296 35.252C214.184 35.252 212.324 34.832 210.716 33.992C209.108 33.152 207.86 31.988 206.972 30.5C206.108 28.988 205.676 27.284 205.676 25.388C205.676 23.516 206.096 21.836 206.936 20.348C207.8 18.836 208.988 17.66 210.5 16.82C212.012 15.98 213.716 15.56 215.612 15.56C217.484 15.56 219.152 15.98 220.616 16.82C222.104 17.636 223.256 18.8 224.072 20.312C224.912 21.8 225.332 23.528 225.332 25.496ZM215.612 19.16C214.172 19.16 212.948 19.592 211.94 20.456C210.956 21.296 210.356 22.424 210.14 23.84H221.048C220.856 22.448 220.268 21.32 219.284 20.456C218.3 19.592 217.076 19.16 215.612 19.16ZM238.475 35.252C236.483 35.252 234.695 34.832 233.111 33.992C231.527 33.152 230.291 31.988 229.403 30.5C228.515 28.988 228.071 27.284 228.071 25.388C228.071 23.492 228.515 21.8 229.403 20.312C230.291 18.824 231.515 17.66 233.075 16.82C234.659 15.98 236.459 15.56 238.475 15.56C240.371 15.56 242.027 15.944 243.443 16.712C244.883 17.48 245.963 18.584 246.683 20.024L243.227 22.04C242.675 21.152 241.979 20.492 241.139 20.06C240.323 19.604 239.423 19.376 238.439 19.376C236.759 19.376 235.367 19.928 234.263 21.032C233.159 22.112 232.607 23.564 232.607 25.388C232.607 27.212 233.147 28.676 234.227 29.78C235.331 30.86 236.735 31.4 238.439 31.4C239.423 31.4 240.323 31.184 241.139 30.752C241.979 30.296 242.675 29.624 243.227 28.736L246.683 30.752C245.939 32.192 244.847 33.308 243.407 34.1C241.991 34.868 240.347 35.252 238.475 35.252ZM262.375 33.956C261.847 34.388 261.199 34.712 260.431 34.928C259.687 35.144 258.895 35.252 258.055 35.252C255.943 35.252 254.311 34.7 253.159 33.596C252.007 32.492 251.431 30.884 251.431 28.772V19.52H248.263V15.92H251.431V11.528H255.931V15.92H261.079V19.52H255.931V28.664C255.931 29.6 256.159 30.32 256.615 30.824C257.071 31.304 257.731 31.544 258.595 31.544C259.603 31.544 260.443 31.28 261.115 30.752L262.375 33.956ZM283.516 25.496C283.516 25.808 283.492 26.252 283.444 26.828H268.36C268.624 28.244 269.308 29.372 270.412 30.212C271.54 31.028 272.932 31.436 274.588 31.436C276.7 31.436 278.44 30.74 279.808 29.348L282.22 32.12C281.356 33.152 280.264 33.932 278.944 34.46C277.624 34.988 276.136 35.252 274.48 35.252C272.368 35.252 270.508 34.832 268.9 33.992C267.292 33.152 266.044 31.988 265.156 30.5C264.292 28.988 263.86 27.284 263.86 25.388C263.86 23.516 264.28 21.836 265.12 20.348C265.984 18.836 267.172 17.66 268.684 16.82C270.196 15.98 271.9 15.56 273.796 15.56C275.668 15.56 277.336 15.98 278.8 16.82C280.288 17.636 281.44 18.8 282.256 20.312C283.096 21.8 283.516 23.528 283.516 25.496ZM273.796 19.16C272.356 19.16 271.132 19.592 270.124 20.456C269.14 21.296 268.54 22.424 268.324 23.84H279.232C279.04 22.448 278.452 21.32 277.468 20.456C276.484 19.592 275.26 19.16 273.796 19.16ZM306.667 8.288V35H302.347V32.516C301.603 33.428 300.679 34.112 299.575 34.568C298.495 35.024 297.295 35.252 295.975 35.252C294.127 35.252 292.459 34.844 290.971 34.028C289.507 33.212 288.355 32.06 287.515 30.572C286.675 29.06 286.255 27.332 286.255 25.388C286.255 23.444 286.675 21.728 287.515 20.24C288.355 18.752 289.507 17.6 290.971 16.784C292.459 15.968 294.127 15.56 295.975 15.56C297.247 15.56 298.411 15.776 299.467 16.208C300.523 16.64 301.423 17.288 302.167 18.152V8.288H306.667ZM296.515 31.4C297.595 31.4 298.567 31.16 299.431 30.68C300.295 30.176 300.979 29.468 301.483 28.556C301.987 27.644 302.239 26.588 302.239 25.388C302.239 24.188 301.987 23.132 301.483 22.22C300.979 21.308 300.295 20.612 299.431 20.132C298.567 19.628 297.595 19.376 296.515 19.376C295.435 19.376 294.463 19.628 293.599 20.132C292.735 20.612 292.051 21.308 291.547 22.22C291.043 23.132 290.791 24.188 290.791 25.388C290.791 26.588 291.043 27.644 291.547 28.556C292.051 29.468 292.735 30.176 293.599 30.68C294.463 31.16 295.435 31.4 296.515 31.4ZM334.059 33.956C333.531 34.388 332.883 34.712 332.115 34.928C331.371 35.144 330.579 35.252 329.739 35.252C327.627 35.252 325.995 34.7 324.843 33.596C323.691 32.492 323.115 30.884 323.115 28.772V19.52H319.947V15.92H323.115V11.528H327.615V15.92H332.763V19.52H327.615V28.664C327.615 29.6 327.843 30.32 328.299 30.824C328.755 31.304 329.415 31.544 330.279 31.544C331.287 31.544 332.127 31.28 332.799 30.752L334.059 33.956ZM345.768 35.252C343.824 35.252 342.072 34.832 340.512 33.992C338.952 33.152 337.728 31.988 336.84 30.5C335.976 28.988 335.544 27.284 335.544 25.388C335.544 23.492 335.976 21.8 336.84 20.312C337.728 18.824 338.952 17.66 340.512 16.82C342.072 15.98 343.824 15.56 345.768 15.56C347.736 15.56 349.5 15.98 351.06 16.82C352.62 17.66 353.832 18.824 354.696 20.312C355.584 21.8 356.028 23.492 356.028 25.388C356.028 27.284 355.584 28.988 354.696 30.5C353.832 31.988 352.62 33.152 351.06 33.992C349.5 34.832 347.736 35.252 345.768 35.252ZM345.768 31.4C347.424 31.4 348.792 30.848 349.872 29.744C350.952 28.64 351.492 27.188 351.492 25.388C351.492 23.588 350.952 22.136 349.872 21.032C348.792 19.928 347.424 19.376 345.768 19.376C344.112 19.376 342.744 19.928 341.664 21.032C340.608 22.136 340.08 23.588 340.08 25.388C340.08 27.188 340.608 28.64 341.664 29.744C342.744 30.848 344.112 31.4 345.768 31.4ZM381.836 33.956C381.308 34.388 380.66 34.712 379.892 34.928C379.148 35.144 378.356 35.252 377.516 35.252C375.404 35.252 373.772 34.7 372.62 33.596C371.468 32.492 370.892 30.884 370.892 28.772V19.52H367.724V15.92H370.892V11.528H375.392V15.92H380.54V19.52H375.392V28.664C375.392 29.6 375.62 30.32 376.076 30.824C376.532 31.304 377.192 31.544 378.056 31.544C379.064 31.544 379.904 31.28 380.576 30.752L381.836 33.956ZM392.882 15.56C395.714 15.56 397.874 16.244 399.362 17.612C400.874 18.956 401.63 20.996 401.63 23.732V35H397.382V32.66C396.83 33.5 396.038 34.148 395.006 34.604C393.998 35.036 392.774 35.252 391.334 35.252C389.894 35.252 388.634 35.012 387.554 34.532C386.474 34.028 385.634 33.344 385.034 32.48C384.458 31.592 384.17 30.596 384.17 29.492C384.17 27.764 384.806 26.384 386.078 25.352C387.374 24.296 389.402 23.768 392.162 23.768H397.13V23.48C397.13 22.136 396.722 21.104 395.906 20.384C395.114 19.664 393.926 19.304 392.342 19.304C391.262 19.304 390.194 19.472 389.138 19.808C388.106 20.144 387.23 20.612 386.51 21.212L384.746 17.936C385.754 17.168 386.966 16.58 388.382 16.172C389.798 15.764 391.298 15.56 392.882 15.56ZM392.27 31.976C393.398 31.976 394.394 31.724 395.258 31.22C396.146 30.692 396.77 29.948 397.13 28.988V26.756H392.486C389.894 26.756 388.598 27.608 388.598 29.312C388.598 30.128 388.922 30.776 389.57 31.256C390.218 31.736 391.118 31.976 392.27 31.976ZM407.405 8.288H411.905V35H407.405V8.288ZM435.883 25.496C435.883 25.808 435.859 26.252 435.811 26.828H420.727C420.991 28.244 421.675 29.372 422.779 30.212C423.907 31.028 425.299 31.436 426.955 31.436C429.067 31.436 430.807 30.74 432.175 29.348L434.587 32.12C433.723 33.152 432.631 33.932 431.311 34.46C429.991 34.988 428.503 35.252 426.847 35.252C424.735 35.252 422.875 34.832 421.267 33.992C419.659 33.152 418.411 31.988 417.523 30.5C416.659 28.988 416.227 27.284 416.227 25.388C416.227 23.516 416.647 21.836 417.487 20.348C418.351 18.836 419.539 17.66 421.051 16.82C422.563 15.98 424.267 15.56 426.163 15.56C428.035 15.56 429.703 15.98 431.167 16.82C432.655 17.636 433.807 18.8 434.623 20.312C435.463 21.8 435.883 23.528 435.883 25.496ZM426.163 19.16C424.723 19.16 423.499 19.592 422.491 20.456C421.507 21.296 420.907 22.424 420.691 23.84H431.599C431.407 22.448 430.819 21.32 429.835 20.456C428.851 19.592 427.627 19.16 426.163 19.16ZM451.114 15.56C453.538 15.56 455.482 16.268 456.946 17.684C458.41 19.1 459.142 21.2 459.142 23.984V35H454.642V24.56C454.642 22.88 454.246 21.62 453.454 20.78C452.662 19.916 451.534 19.484 450.07 19.484C448.414 19.484 447.106 19.988 446.146 20.996C445.186 21.98 444.706 23.408 444.706 25.28V35H440.206V15.776H444.49V18.26C445.234 17.372 446.17 16.7 447.298 16.244C448.426 15.788 449.698 15.56 451.114 15.56ZM476.406 33.956C475.878 34.388 475.23 34.712 474.462 34.928C473.718 35.144 472.926 35.252 472.086 35.252C469.974 35.252 468.342 34.7 467.19 33.596C466.038 32.492 465.462 30.884 465.462 28.772V19.52H462.294V15.92H465.462V11.528H469.962V15.92H475.11V19.52H469.962V28.664C469.962 29.6 470.19 30.32 470.646 30.824C471.102 31.304 471.762 31.544 472.626 31.544C473.634 31.544 474.474 31.28 475.146 30.752L476.406 33.956ZM497.547 25.496C497.547 25.808 497.523 26.252 497.475 26.828H482.391C482.655 28.244 483.339 29.372 484.443 30.212C485.571 31.028 486.963 31.436 488.619 31.436C490.731 31.436 492.471 30.74 493.839 29.348L496.251 32.12C495.387 33.152 494.295 33.932 492.975 34.46C491.655 34.988 490.167 35.252 488.511 35.252C486.399 35.252 484.539 34.832 482.931 33.992C481.323 33.152 480.075 31.988 479.187 30.5C478.323 28.988 477.891 27.284 477.891 25.388C477.891 23.516 478.311 21.836 479.151 20.348C480.015 18.836 481.203 17.66 482.715 16.82C484.227 15.98 485.931 15.56 487.827 15.56C489.699 15.56 491.367 15.98 492.831 16.82C494.319 17.636 495.471 18.8 496.287 20.312C497.127 21.8 497.547 23.528 497.547 25.496ZM487.827 19.16C486.387 19.16 485.163 19.592 484.155 20.456C483.171 21.296 482.571 22.424 482.355 23.84H493.263C493.071 22.448 492.483 21.32 491.499 20.456C490.515 19.592 489.291 19.16 487.827 19.16ZM520.698 8.288V35H516.378V32.516C515.634 33.428 514.71 34.112 513.606 34.568C512.526 35.024 511.326 35.252 510.006 35.252C508.158 35.252 506.49 34.844 505.002 34.028C503.538 33.212 502.386 32.06 501.546 30.572C500.706 29.06 500.286 27.332 500.286 25.388C500.286 23.444 500.706 21.728 501.546 20.24C502.386 18.752 503.538 17.6 505.002 16.784C506.49 15.968 508.158 15.56 510.006 15.56C511.278 15.56 512.442 15.776 513.498 16.208C514.554 16.64 515.454 17.288 516.198 18.152V8.288H520.698ZM510.546 31.4C511.626 31.4 512.598 31.16 513.462 30.68C514.326 30.176 515.01 29.468 515.514 28.556C516.018 27.644 516.27 26.588 516.27 25.388C516.27 24.188 516.018 23.132 515.514 22.22C515.01 21.308 514.326 20.612 513.462 20.132C512.598 19.628 511.626 19.376 510.546 19.376C509.466 19.376 508.494 19.628 507.63 20.132C506.766 20.612 506.082 21.308 505.578 22.22C505.074 23.132 504.822 24.188 504.822 25.388C504.822 26.588 505.074 27.644 505.578 28.556C506.082 29.468 506.766 30.176 507.63 30.68C508.494 31.16 509.466 31.4 510.546 31.4ZM542.474 35.252C540.914 35.252 539.39 35.048 537.902 34.64C536.414 34.232 535.226 33.716 534.338 33.092L536.066 29.672C536.93 30.248 537.962 30.716 539.162 31.076C540.386 31.412 541.586 31.58 542.762 31.58C545.45 31.58 546.794 30.872 546.794 29.456C546.794 28.784 546.446 28.316 545.75 28.052C545.078 27.788 543.986 27.536 542.474 27.296C540.89 27.056 539.594 26.78 538.586 26.468C537.602 26.156 536.738 25.616 535.994 24.848C535.274 24.056 534.914 22.964 534.914 21.572C534.914 19.748 535.67 18.296 537.182 17.216C538.718 16.112 540.782 15.56 543.374 15.56C544.694 15.56 546.014 15.716 547.334 16.028C548.654 16.316 549.734 16.712 550.574 17.216L548.846 20.636C547.214 19.676 545.378 19.196 543.338 19.196C542.018 19.196 541.01 19.4 540.314 19.808C539.642 20.192 539.306 20.708 539.306 21.356C539.306 22.076 539.666 22.592 540.386 22.904C541.13 23.192 542.27 23.468 543.806 23.732C545.342 23.972 546.602 24.248 547.586 24.56C548.57 24.872 549.41 25.4 550.106 26.144C550.826 26.888 551.186 27.944 551.186 29.312C551.186 31.112 550.406 32.552 548.846 33.632C547.286 34.712 545.162 35.252 542.474 35.252ZM566.617 33.956C566.089 34.388 565.441 34.712 564.673 34.928C563.929 35.144 563.137 35.252 562.297 35.252C560.185 35.252 558.553 34.7 557.401 33.596C556.249 32.492 555.673 30.884 555.673 28.772V19.52H552.505V15.92H555.673V11.528H560.173V15.92H565.321V19.52H560.173V28.664C560.173 29.6 560.401 30.32 560.857 30.824C561.313 31.304 561.973 31.544 562.837 31.544C563.845 31.544 564.685 31.28 565.357 30.752L566.617 33.956ZM588.931 15.776V35H584.647V32.552C583.927 33.416 583.027 34.088 581.947 34.568C580.867 35.024 579.703 35.252 578.455 35.252C575.887 35.252 573.859 34.544 572.371 33.128C570.907 31.688 570.175 29.564 570.175 26.756V15.776H574.675V26.144C574.675 27.872 575.059 29.168 575.827 30.032C576.619 30.872 577.735 31.292 579.175 31.292C580.783 31.292 582.055 30.8 582.991 29.816C583.951 28.808 584.431 27.368 584.431 25.496V15.776H588.931ZM613.651 8.288V35H609.331V32.516C608.587 33.428 607.663 34.112 606.559 34.568C605.479 35.024 604.279 35.252 602.959 35.252C601.111 35.252 599.443 34.844 597.955 34.028C596.491 33.212 595.339 32.06 594.499 30.572C593.659 29.06 593.239 27.332 593.239 25.388C593.239 23.444 593.659 21.728 594.499 20.24C595.339 18.752 596.491 17.6 597.955 16.784C599.443 15.968 601.111 15.56 602.959 15.56C604.231 15.56 605.395 15.776 606.451 16.208C607.507 16.64 608.407 17.288 609.151 18.152V8.288H613.651ZM603.499 31.4C604.579 31.4 605.551 31.16 606.415 30.68C607.279 30.176 607.963 29.468 608.467 28.556C608.971 27.644 609.223 26.588 609.223 25.388C609.223 24.188 608.971 23.132 608.467 22.22C607.963 21.308 607.279 20.612 606.415 20.132C605.551 19.628 604.579 19.376 603.499 19.376C602.419 19.376 601.447 19.628 600.583 20.132C599.719 20.612 599.035 21.308 598.531 22.22C598.027 23.132 597.775 24.188 597.775 25.388C597.775 26.588 598.027 27.644 598.531 28.556C599.035 29.468 599.719 30.176 600.583 30.68C601.447 31.16 602.419 31.4 603.499 31.4ZM637.61 25.496C637.61 25.808 637.586 26.252 637.538 26.828H622.454C622.718 28.244 623.402 29.372 624.506 30.212C625.634 31.028 627.026 31.436 628.682 31.436C630.794 31.436 632.534 30.74 633.902 29.348L636.314 32.12C635.45 33.152 634.358 33.932 633.038 34.46C631.718 34.988 630.23 35.252 628.574 35.252C626.462 35.252 624.602 34.832 622.994 33.992C621.386 33.152 620.138 31.988 619.25 30.5C618.386 28.988 617.954 27.284 617.954 25.388C617.954 23.516 618.374 21.836 619.214 20.348C620.078 18.836 621.266 17.66 622.778 16.82C624.29 15.98 625.994 15.56 627.89 15.56C629.762 15.56 631.43 15.98 632.894 16.82C634.382 17.636 635.534 18.8 636.35 20.312C637.19 21.8 637.61 23.528 637.61 25.496ZM627.89 19.16C626.45 19.16 625.226 19.592 624.218 20.456C623.234 21.296 622.634 22.424 622.418 23.84H633.326C633.134 22.448 632.546 21.32 631.562 20.456C630.578 19.592 629.354 19.16 627.89 19.16ZM652.84 15.56C655.264 15.56 657.208 16.268 658.672 17.684C660.136 19.1 660.868 21.2 660.868 23.984V35H656.368V24.56C656.368 22.88 655.972 21.62 655.18 20.78C654.388 19.916 653.26 19.484 651.796 19.484C650.14 19.484 648.832 19.988 647.872 20.996C646.912 21.98 646.432 23.408 646.432 25.28V35H641.932V15.776H646.216V18.26C646.96 17.372 647.896 16.7 649.024 16.244C650.152 15.788 651.424 15.56 652.84 15.56ZM678.133 33.956C677.605 34.388 676.957 34.712 676.189 34.928C675.445 35.144 674.653 35.252 673.813 35.252C671.701 35.252 670.069 34.7 668.917 33.596C667.765 32.492 667.189 30.884 667.189 28.772V19.52H664.021V15.92H667.189V11.528H671.689V15.92H676.837V19.52H671.689V28.664C671.689 29.6 671.917 30.32 672.373 30.824C672.829 31.304 673.489 31.544 674.353 31.544C675.361 31.544 676.201 31.28 676.873 30.752L678.133 33.956ZM699.596 11.672C697.7 11.672 696.752 12.704 696.752 14.768V15.92H702.044V19.52H696.896V35H692.396V19.52H689.228V15.92H692.396V14.696C692.396 12.632 692.996 11.012 694.196 9.836C695.396 8.636 697.088 8.036 699.272 8.036C701 8.036 702.356 8.384 703.34 9.08L702.08 12.464C701.312 11.936 700.484 11.672 699.596 11.672ZM712.24 18.584C713.536 16.568 715.816 15.56 719.08 15.56V19.844C718.696 19.772 718.348 19.736 718.036 19.736C716.284 19.736 714.916 20.252 713.932 21.284C712.948 22.292 712.456 23.756 712.456 25.676V35H707.956V15.776H712.24V18.584ZM740.793 25.496C740.793 25.808 740.769 26.252 740.721 26.828H725.637C725.901 28.244 726.585 29.372 727.689 30.212C728.817 31.028 730.209 31.436 731.865 31.436C733.977 31.436 735.717 30.74 737.085 29.348L739.497 32.12C738.633 33.152 737.541 33.932 736.221 34.46C734.901 34.988 733.413 35.252 731.757 35.252C729.645 35.252 727.785 34.832 726.177 33.992C724.569 33.152 723.321 31.988 722.433 30.5C721.569 28.988 721.137 27.284 721.137 25.388C721.137 23.516 721.557 21.836 722.397 20.348C723.261 18.836 724.449 17.66 725.961 16.82C727.473 15.98 729.177 15.56 731.073 15.56C732.945 15.56 734.613 15.98 736.077 16.82C737.565 17.636 738.717 18.8 739.533 20.312C740.373 21.8 740.793 23.528 740.793 25.496ZM731.073 19.16C729.633 19.16 728.409 19.592 727.401 20.456C726.417 21.296 725.817 22.424 725.601 23.84H736.509C736.317 22.448 735.729 21.32 734.745 20.456C733.761 19.592 732.537 19.16 731.073 19.16ZM763.188 25.496C763.188 25.808 763.164 26.252 763.116 26.828H748.032C748.296 28.244 748.98 29.372 750.084 30.212C751.212 31.028 752.604 31.436 754.26 31.436C756.372 31.436 758.112 30.74 759.48 29.348L761.892 32.12C761.028 33.152 759.936 33.932 758.616 34.46C757.296 34.988 755.808 35.252 754.152 35.252C752.04 35.252 750.18 34.832 748.572 33.992C746.964 33.152 745.716 31.988 744.828 30.5C743.964 28.988 743.532 27.284 743.532 25.388C743.532 23.516 743.952 21.836 744.792 20.348C745.656 18.836 746.844 17.66 748.356 16.82C749.868 15.98 751.572 15.56 753.468 15.56C755.34 15.56 757.008 15.98 758.472 16.82C759.96 17.636 761.112 18.8 761.928 20.312C762.768 21.8 763.188 23.528 763.188 25.496ZM753.468 19.16C752.028 19.16 750.804 19.592 749.796 20.456C748.812 21.296 748.212 22.424 747.996 23.84H758.904C758.712 22.448 758.124 21.32 757.14 20.456C756.156 19.592 754.932 19.16 753.468 19.16ZM767.51 8.288H772.01V35H767.51V8.288ZM785.261 15.56C788.093 15.56 790.253 16.244 791.741 17.612C793.253 18.956 794.009 20.996 794.009 23.732V35H789.761V32.66C789.209 33.5 788.417 34.148 787.385 34.604C786.377 35.036 785.153 35.252 783.713 35.252C782.273 35.252 781.013 35.012 779.933 34.532C778.853 34.028 778.013 33.344 777.413 32.48C776.837 31.592 776.549 30.596 776.549 29.492C776.549 27.764 777.185 26.384 778.457 25.352C779.753 24.296 781.781 23.768 784.541 23.768H789.509V23.48C789.509 22.136 789.101 21.104 788.285 20.384C787.493 19.664 786.305 19.304 784.721 19.304C783.641 19.304 782.573 19.472 781.517 19.808C780.485 20.144 779.609 20.612 778.889 21.212L777.125 17.936C778.133 17.168 779.345 16.58 780.761 16.172C782.177 15.764 783.677 15.56 785.261 15.56ZM784.649 31.976C785.777 31.976 786.773 31.724 787.637 31.22C788.525 30.692 789.149 29.948 789.509 28.988V26.756H784.865C782.273 26.756 780.977 27.608 780.977 29.312C780.977 30.128 781.301 30.776 781.949 31.256C782.597 31.736 783.497 31.976 784.649 31.976ZM810.692 15.56C813.116 15.56 815.06 16.268 816.524 17.684C817.988 19.1 818.72 21.2 818.72 23.984V35H814.22V24.56C814.22 22.88 813.824 21.62 813.032 20.78C812.24 19.916 811.112 19.484 809.648 19.484C807.992 19.484 806.684 19.988 805.724 20.996C804.764 21.98 804.284 23.408 804.284 25.28V35H799.784V15.776H804.068V18.26C804.812 17.372 805.748 16.7 806.876 16.244C808.004 15.788 809.276 15.56 810.692 15.56ZM833.424 35.252C831.432 35.252 829.644 34.832 828.06 33.992C826.476 33.152 825.24 31.988 824.352 30.5C823.464 28.988 823.02 27.284 823.02 25.388C823.02 23.492 823.464 21.8 824.352 20.312C825.24 18.824 826.464 17.66 828.024 16.82C829.608 15.98 831.408 15.56 833.424 15.56C835.32 15.56 836.976 15.944 838.392 16.712C839.832 17.48 840.912 18.584 841.632 20.024L838.176 22.04C837.624 21.152 836.928 20.492 836.088 20.06C835.272 19.604 834.372 19.376 833.388 19.376C831.708 19.376 830.316 19.928 829.212 21.032C828.108 22.112 827.556 23.564 827.556 25.388C827.556 27.212 828.096 28.676 829.176 29.78C830.28 30.86 831.684 31.4 833.388 31.4C834.372 31.4 835.272 31.184 836.088 30.752C836.928 30.296 837.624 29.624 838.176 28.736L841.632 30.752C840.888 32.192 839.796 33.308 838.356 34.1C836.94 34.868 835.296 35.252 833.424 35.252ZM863.313 25.496C863.313 25.808 863.289 26.252 863.241 26.828H848.157C848.421 28.244 849.105 29.372 850.209 30.212C851.337 31.028 852.729 31.436 854.385 31.436C856.497 31.436 858.237 30.74 859.605 29.348L862.017 32.12C861.153 33.152 860.061 33.932 858.741 34.46C857.421 34.988 855.933 35.252 854.277 35.252C852.165 35.252 850.305 34.832 848.697 33.992C847.089 33.152 845.841 31.988 844.953 30.5C844.089 28.988 843.657 27.284 843.657 25.388C843.657 23.516 844.077 21.836 844.917 20.348C845.781 18.836 846.969 17.66 848.481 16.82C849.993 15.98 851.697 15.56 853.593 15.56C855.465 15.56 857.133 15.98 858.597 16.82C860.085 17.636 861.237 18.8 862.053 20.312C862.893 21.8 863.313 23.528 863.313 25.496ZM853.593 19.16C852.153 19.16 850.929 19.592 849.921 20.456C848.937 21.296 848.337 22.424 848.121 23.84H859.029C858.837 22.448 858.249 21.32 857.265 20.456C856.281 19.592 855.057 19.16 853.593 19.16ZM871.919 18.584C873.215 16.568 875.495 15.56 878.759 15.56V19.844C878.375 19.772 878.027 19.736 877.715 19.736C875.963 19.736 874.595 20.252 873.611 21.284C872.627 22.292 872.135 23.756 872.135 25.676V35H867.635V15.776H871.919V18.584ZM888.587 35.252C887.027 35.252 885.503 35.048 884.015 34.64C882.527 34.232 881.339 33.716 880.451 33.092L882.179 29.672C883.043 30.248 884.075 30.716 885.275 31.076C886.499 31.412 887.699 31.58 888.875 31.58C891.563 31.58 892.907 30.872 892.907 29.456C892.907 28.784 892.559 28.316 891.863 28.052C891.191 27.788 890.099 27.536 888.587 27.296C887.003 27.056 885.707 26.78 884.699 26.468C883.715 26.156 882.851 25.616 882.107 24.848C881.387 24.056 881.027 22.964 881.027 21.572C881.027 19.748 881.783 18.296 883.295 17.216C884.831 16.112 886.895 15.56 889.487 15.56C890.807 15.56 892.127 15.716 893.447 16.028C894.767 16.316 895.847 16.712 896.687 17.216L894.959 20.636C893.327 19.676 891.491 19.196 889.451 19.196C888.131 19.196 887.123 19.4 886.427 19.808C885.755 20.192 885.419 20.708 885.419 21.356C885.419 22.076 885.779 22.592 886.499 22.904C887.243 23.192 888.383 23.468 889.919 23.732C891.455 23.972 892.715 24.248 893.699 24.56C894.683 24.872 895.523 25.4 896.219 26.144C896.939 26.888 897.299 27.944 897.299 29.312C897.299 31.112 896.519 32.552 894.959 33.632C893.399 34.712 891.275 35.252 888.587 35.252Z" fill="black"/>
</svg>
